<svg width="180" height="180" viewBox="0 0 180 180" fill="none" xmlns="http://www.w3.org/2000/svg">
<circle cx="90" cy="90" r="90" fill="#E4E9F4"/>
<path d="M36.5 161.4L38.35 151.15C40.5355 139.312 46.7987 128.614 56.0515 120.914C65.3044 113.214 76.9623 108.999 89 109C101.052 109.003 112.721 113.233 121.976 120.953C131.231 128.673 137.485 139.394 139.65 151.25L141.5 161.5M117.65 80.2501C117.65 96.0731 104.823 108.9 89 108.9C73.177 108.9 60.35 96.0731 60.35 80.2501C60.35 64.4271 73.177 51.6001 89 51.6001C104.823 51.6001 117.65 64.4271 117.65 80.2501Z" stroke="#F4F6FB" stroke-width="2" stroke-miterlimit="10"/>
</svg>
