<svg width="389" height="31" viewBox="0 0 389 31" fill="none" xmlns="http://www.w3.org/2000/svg">
<g clip-path="url(#clip0_1023_171)">
<path d="M8.65764 21C11.9592 21 14.6356 18.0899 14.6356 14.5C14.6356 10.9101 11.9592 8 8.65764 8C5.35611 8 2.67969 10.9101 2.67969 14.5C2.67969 18.0899 5.35611 21 8.65764 21Z" fill="white" stroke="#5100C1" stroke-width="4"/>
<path d="M50.0434 21C53.3449 21 56.0213 18.0899 56.0213 14.5C56.0213 10.9101 53.3449 8 50.0434 8C46.7419 8 44.0654 10.9101 44.0654 14.5C44.0654 18.0899 46.7419 21 50.0434 21Z" fill="white" stroke="#5100C1" stroke-width="4"/>
<path d="M84.9906 21C88.2922 21 90.9686 18.0899 90.9686 14.5C90.9686 10.9101 88.2922 8 84.9906 8C81.6891 8 79.0127 10.9101 79.0127 14.5C79.0127 18.0899 81.6891 21 84.9906 21Z" fill="white" stroke="#5100C1" stroke-width="4"/>
<path d="M143.851 21C147.153 21 149.829 18.0899 149.829 14.5C149.829 10.9101 147.153 8 143.851 8C140.549 8 137.873 10.9101 137.873 14.5C137.873 18.0899 140.549 21 143.851 21Z" fill="white" stroke="#5100C1" stroke-width="4"/>
<path d="M126.376 21C129.678 21 132.354 18.0899 132.354 14.5C132.354 10.9101 129.678 8 126.376 8C123.075 8 120.398 10.9101 120.398 14.5C120.398 18.0899 123.075 21 126.376 21Z" fill="white" stroke="#5100C1" stroke-width="4"/>
<path d="M14.6348 21V16" stroke="#5100C1" stroke-width="4" stroke-linecap="round"/>
<path d="M14.6348 21V16" stroke="#5100C1" stroke-width="4" stroke-linecap="round"/>
<path d="M66.5971 21C69.8986 21 72.575 18.0899 72.575 14.5C72.575 10.9101 69.8986 8 66.5971 8C63.2956 8 60.6191 10.9101 60.6191 14.5C60.6191 18.0899 63.2956 21 66.5971 21Z" fill="white" stroke="#5100C1" stroke-width="4"/>
<path d="M72.5752 21V16" stroke="#5100C1" stroke-width="4" stroke-linecap="round"/>
<path d="M72.5752 21V16" stroke="#5100C1" stroke-width="4" stroke-linecap="round"/>
<path d="M79.0127 27V16" stroke="#5100C1" stroke-width="4" stroke-linecap="round"/>
<path d="M132.354 19V8" stroke="#5100C1" stroke-width="4" stroke-linecap="round"/>
<path d="M132.354 19V8" stroke="#5100C1" stroke-width="4" stroke-linecap="round"/>
<path d="M162.704 15L168.938 8" stroke="#5100C1" stroke-width="4" stroke-linecap="round"/>
<path d="M162.704 15L168.938 8" stroke="#5100C1" stroke-width="4" stroke-linecap="round"/>
<path d="M156.267 8L162.603 14.89" stroke="#5100C1" stroke-width="4" stroke-linecap="round"/>
<path d="M156.267 8L162.603 14.89" stroke="#5100C1" stroke-width="4" stroke-linecap="round"/>
<path d="M20.1533 21V8" stroke="#5100C1" stroke-width="4" stroke-linecap="round"/>
<path d="M20.1533 21V8" stroke="#5100C1" stroke-width="4" stroke-linecap="round"/>
<path d="M29.2271 8L23.709 14" stroke="#5100C1" stroke-width="4" stroke-linecap="round"/>
<path d="M29.2271 8L23.709 14" stroke="#5100C1" stroke-width="4" stroke-linecap="round"/>
<path d="M29.2271 21L23.709 15" stroke="#5100C1" stroke-width="4" stroke-linecap="round"/>
<path d="M29.2271 21L23.709 15" stroke="#5100C1" stroke-width="4" stroke-linecap="round"/>
<path d="M45.5848 8.08439C45.6134 8.07996 45.38 7.95215 45.3495 7.92504C45.3252 7.90345 45.2466 7.90147 45.2396 7.87472C45.2141 7.77728 45.1783 7.74599 45.0796 7.70697C44.8408 7.61255 44.6629 7.32996 44.4393 7.18697C44.268 7.0774 43.9593 6.85061 43.8666 6.66906C43.7133 6.36901 43.5049 6.10285 43.4346 5.75906C43.3669 5.4273 43.3633 5.11492 43.3633 4.76308C43.3633 4.53672 43.4778 4.41146 43.5908 4.23259C43.6309 4.16917 43.691 4.10727 43.7181 4.03759C43.7737 3.89463 43.9247 3.84063 43.9804 3.71469C44.11 3.42102 44.4448 3.13429 44.6668 2.93678C44.8005 2.81792 45.0406 2.69452 45.203 2.62016C45.344 2.55558 45.4749 2.44717 45.6195 2.36855C45.7043 2.32241 45.7736 2.32002 45.8625 2.30984C45.9811 2.29627 46.0961 2.17965 46.2251 2.16097C46.3105 2.14857 46.4012 2.16133 46.4873 2.15887C46.6159 2.15519 46.7371 2.08858 46.8614 2.08339C47.0577 2.07517 47.2203 2.0079 47.4245 2.0079C47.6154 2.0079 47.8063 2.0079 47.9972 2.0079C48.899 2.0079 49.8009 2.0079 50.7027 2.0079C51.6935 2.0079 52.6743 1.97016 53.6667 1.97016C53.9115 1.97016 54.114 1.85693 54.3532 1.85693C54.6238 1.85693 54.8944 1.85693 55.165 1.85693C55.57 1.85693 55.9749 1.85693 56.3799 1.85693" stroke="#5100C1" stroke-width="3" stroke-linecap="round"/>
<path d="M47.3207 8.27295C47.1697 8.17194 46.9922 8.12013 46.8347 8.02973C46.758 7.98571 46.6278 7.88018 46.5648 7.81166C46.4832 7.723 46.7404 7.97762 46.8424 8.03602C46.886 8.06095 46.9532 8.04452 47.0005 8.0465C47.02 8.04731 47.1056 8.09484 47.0931 8.06327C47.0724 8.01057 47.046 7.95324 47.0082 7.91231C46.7445 7.62544 46.2941 7.59448 46.0788 7.25391C46.0306 7.17768 45.9259 7.13381 45.8628 7.0652C45.7873 6.9831 45.7157 6.8825 45.6198 6.83036C45.52 6.77607 45.459 6.676 45.3769 6.59133C45.3432 6.55658 45.2893 6.5506 45.2573 6.51584C45.2157 6.47063 45.2455 6.42433 45.1763 6.39423C45.0952 6.35896 44.9951 6.22118 44.9951 6.13004C44.9951 6.06593 44.9807 5.86551 44.9256 5.8281C44.8599 5.7834 44.8909 5.63497 44.8909 5.55552C44.8909 5.43543 44.8215 5.35629 44.8215 5.25358C44.8215 5.04105 44.81 4.82412 44.8215 4.61196C44.8285 4.48315 45.049 4.41287 45.1069 4.31002C45.1537 4.2268 45.2322 4.06643 45.3075 4.01647C45.3845 3.96531 45.473 3.86628 45.5234 3.78163C45.5806 3.68551 45.6835 3.73648 45.7587 3.69776C45.8837 3.6334 46.0117 3.5881 46.1405 3.52582C46.1957 3.49913 46.3418 3.40688 46.3835 3.40421C46.4854 3.39769 46.6018 3.37545 46.6959 3.32873C46.798 3.27796 46.9133 3.28831 47.0082 3.24485C47.175 3.16853 47.4179 3.2155 47.5984 3.2155C48.0734 3.2155 48.5484 3.2155 49.0235 3.2155C50.023 3.2155 51.0225 3.2155 52.0221 3.2155C52.5601 3.2155 53.0981 3.2155 53.6361 3.2155C53.8586 3.2155 54.2149 3.29281 54.421 3.21131C54.561 3.15594 54.6459 3.14002 54.799 3.14002C54.92 3.14002 54.9593 3.06453 55.0766 3.06453C55.2687 3.06453 55.4833 3.09408 55.6725 3.06243C55.8186 3.038 55.727 3.02262 55.6282 3.03518C55.4771 3.05438 55.3304 3.09682 55.1846 3.14211C55.0963 3.16956 55.0721 3.2155 54.9725 3.2155C54.9172 3.2155 54.8752 3.20538 54.8356 3.25324C54.7415 3.36693 54.4931 3.34479 54.8356 3.32663C54.9955 3.31815 55.1793 3.31368 55.3389 3.28889C55.5361 3.25825 55.7466 3.17776 55.9482 3.17776C56.287 3.17776 56.7876 3.1603 57.0205 2.83808C57.1439 2.66724 57.3521 2.57608 57.3521 2.32856C57.3521 2.06504 57.3478 1.88982 57.1786 1.70581" stroke="#5100C1" stroke-linecap="round"/>
<path d="M42.2871 4.15921C42.2871 3.94827 42.2866 3.75771 42.3932 3.57421C42.533 3.33347 42.7158 3.11969 42.8598 2.87598C43.0175 2.60923 43.3116 2.34274 43.5483 2.15888C43.7539 1.99915 44.0169 1.76737 44.2656 1.71436C44.4038 1.68491 44.5058 1.56859 44.6475 1.555C44.6726 1.55258 44.9249 1.47563 44.9406 1.45855C45.0616 1.32691 45.3344 1.31594 45.4998 1.23419C45.604 1.18272 45.7693 1.21532 45.8816 1.21532C46.0429 1.21532 46.1695 1.10209 46.3405 1.10209C46.5746 1.10209 46.8046 1.02661 47.0425 1.02661" stroke="#5100C1" stroke-linecap="round"/>
<path d="M42.4603 4.00806C41.9741 4.31907 42.2678 5.16354 42.4681 5.55549C42.5396 5.69556 42.6754 5.76369 42.7053 5.90985C42.7082 5.92446 42.7844 6.06072 42.7014 6.02307C42.6618 6.00516 42.4763 5.93927 42.4642 5.90985C42.3396 5.60512 42.27 5.18655 42.4603 4.87613" stroke="#5100C1" stroke-linecap="round"/>
<path d="M47.1811 7.55585C46.998 7.55585 46.6822 7.6295 46.5215 7.50973C46.4127 7.42855 46.2831 7.48431 46.1918 7.40489C45.9977 7.23602 45.7044 7.14981 45.5343 6.91424C45.2456 6.51475 44.8207 6.17563 44.8207 5.60165C44.8207 5.54389 44.8204 5.69423 44.8207 5.70649C44.8231 5.79074 44.9162 5.90212 44.9673 5.9623C45.0485 6.05795 45.1363 6.18203 45.2411 6.25165C45.5115 6.43132 45.8447 6.42359 46.1551 6.42359C46.3705 6.42359 46.5858 6.42359 46.8012 6.42359C47.0882 6.42359 47.3409 6.49907 47.6343 6.49907C47.8919 6.49907 48.1592 6.53682 48.4229 6.53682C48.4419 6.53682 48.6221 6.53682 48.556 6.53682C48.2507 6.53682 47.9428 6.52381 47.6381 6.54311C47.2417 6.56822 46.8234 6.66892 46.4521 6.83037C46.3736 6.86452 47.3199 6.90159 47.3199 6.97085C47.3199 7.06974 47.0934 7.11661 47.0345 7.18263C46.9967 7.22507 47.4079 7.14992 47.0114 7.30843C46.5739 7.48333 46.1497 7.59834 45.6943 7.66908C45.4844 7.70168 45.4255 7.9826 45.3838 8.1807C45.3675 8.25807 45.2438 8.56074 45.2932 8.60844C45.3111 8.62573 45.4459 8.66516 45.3606 8.64199C45.2901 8.6228 45.2317 8.61563 45.1601 8.61264C45.0844 8.60947 45.0287 8.55234 44.9615 8.52038C44.8856 8.48429 44.7936 8.49941 44.7127 8.49941C44.5303 8.49941 44.3236 8.4782 44.1612 8.39457C44.0632 8.34408 43.9873 8.34804 43.9009 8.25409C43.8329 8.18017 43.7211 8.13347 43.6483 8.07586C43.5631 8.00852 43.4973 7.90219 43.3976 7.8557C43.2823 7.80197 43.2609 7.65584 43.1546 7.58521C42.9954 7.47944 42.9621 7.19702 42.8229 7.0673C42.6405 6.89724 42.5926 6.59191 42.4777 6.36698C42.289 5.99753 42.1731 5.59129 42.1114 5.15503C42.0393 4.64587 42.0785 4.10765 42.0785 3.59083C42.0785 3.35634 42.2871 3.02754 42.4758 2.91566C42.5617 2.86473 42.819 2.77156 42.8692 2.68711C42.9642 2.52744 43.1321 2.47935 43.2414 2.34743C43.3942 2.16279 43.7139 1.98212 43.9183 1.86517C44.1027 1.75962 44.1545 1.73696 43.9144 1.87565C43.7179 1.98914 43.4578 2.13301 43.2934 2.29292C43.2116 2.3725 43.0405 2.43663 42.9406 2.48372C42.7347 2.58068 42.5926 2.82779 42.391 2.90518C42.2687 2.9521 42.1638 3.11195 42.0612 3.19873C41.9831 3.26479 42.1688 2.96221 42.2058 2.92195C42.4136 2.69608 42.6914 2.5323 42.9116 2.29292C43.1911 1.98906 43.5696 1.81917 43.9106 1.61775C44.0248 1.55024 44.2072 1.59031 44.3348 1.55065C44.4782 1.5061 44.6242 1.3781 44.7783 1.36613C44.9448 1.3532 45.0908 1.36818 45.2527 1.30952C45.3142 1.28723 45.3736 1.29065 45.4378 1.29065C45.5874 1.29065 45.2421 1.29065 45.218 1.29065C45.028 1.29065 44.83 1.26465 44.6471 1.32839C44.5508 1.36202 44.2286 1.41244 44.1592 1.50033C44.0685 1.61552 43.9213 1.74452 43.7987 1.81904C43.6479 1.91065 43.511 2.08983 43.3474 2.15453C43.0891 2.25669 42.8774 2.51194 42.6146 2.61582C42.5233 2.65193 42.433 2.75977 42.3639 2.82969C42.3253 2.86887 42.188 2.90558 42.1827 2.95131C42.178 2.99274 42.0378 3.14241 42.0072 3.17566C41.6571 3.55644 41.5227 4.43205 41.8009 4.916C41.8695 5.03544 41.9167 5.18409 41.9822 5.31229C42.0012 5.3496 42.0329 5.37923 42.0419 5.42342C42.0531 5.47792 42.0109 5.25013 41.9764 5.20326C41.8245 4.9969 42.0168 4.5566 41.8857 4.31212C41.7637 4.08483 41.6428 4.47614 41.6293 4.55745C41.6033 4.71275 41.6273 4.89847 41.6273 5.05648C41.6273 5.1749 41.7522 5.34795 41.8009 5.45907C41.8594 5.59273 41.9113 5.71463 41.9744 5.83649C42.117 6.11209 42.2608 6.35363 42.4449 6.60391C42.5382 6.73063 42.706 6.76722 42.74 6.93311C42.7548 7.00529 42.9869 7.17263 43.0505 7.23714C43.2575 7.44728 42.7327 6.71648 42.6513 6.42149C42.6032 6.24725 42.5043 6.03778 42.4951 5.85746C42.4883 5.72462 42.4366 5.3959 42.3736 5.29552C42.2736 5.13612 42.1745 5.1781 42.0014 5.1781C41.8781 5.1781 41.7661 5.14482 41.7661 5.31019C41.7661 5.45108 41.7586 5.57026 41.7661 5.70649C41.7789 5.93588 42.013 6.2396 42.1287 6.43198C42.2719 6.67001 42.4197 6.87588 42.5838 7.10295C42.6541 7.2002 42.785 7.25148 42.8422 7.33779C42.9169 7.45067 43.0551 7.55083 43.1739 7.59779C43.2485 7.62728 43.5094 7.76164 43.5442 7.82005C43.6212 7.94955 43.8083 7.90085 43.899 8.02763C43.9629 8.11697 43.5385 8.0465 43.494 8.0465C43.3046 8.0465 43.2301 8.0579 43.1025 7.95005C42.6974 7.60747 42.4106 7.22475 42.094 6.78214C42.027 6.68853 41.9392 6.50091 41.9127 6.38585C41.8854 6.26691 41.8732 6.24158 41.8048 6.14052C41.7394 6.044 41.7689 5.89745 41.7488 5.78407C41.6603 5.28335 41.7715 4.82735 42.0207 4.40857C42.1297 4.22552 42.2709 4.09869 42.4083 3.9326C42.4583 3.87226 42.679 3.6127 42.6262 3.74809C42.4725 4.14245 42.3373 4.54475 42.2869 4.97051C42.2529 5.25648 42.1827 5.51919 42.1827 5.80294C42.1827 6.31894 42.4996 6.98662 42.8345 7.33779C43.1159 7.63284 43.4025 8.04042 43.7717 8.18909C43.8514 8.2212 43.8635 8.31792 43.9375 8.34634C44.0339 8.38334 44.112 8.48969 44.1959 8.55812C44.3406 8.67614 44.543 8.7737 44.543 8.98167C44.543 9.11101 44.2494 8.81234 44.165 8.79925C44.0764 8.78547 43.9166 8.57727 43.8411 8.5078C43.5992 8.28525 43.3543 8.12946 43.1315 7.88715C42.8835 7.61757 42.6312 7.39804 42.5279 7.01908C42.4149 6.60445 42.3327 6.23601 42.4604 5.81971" stroke="#5100C1" stroke-linecap="round"/>
<path d="M107.257 10.3839C107.139 10.1394 106.993 10.0893 106.824 9.91316C106.624 9.70326 106.467 9.44092 106.289 9.20907C106.107 8.97054 105.859 8.8413 105.606 8.71068C105.338 8.5727 105.081 8.41737 104.817 8.26568C104.564 8.11942 104.287 8.0384 104.019 7.92946C103.834 7.85424 103.636 7.84056 103.448 7.76531C103.337 7.72066 103.209 7.71388 103.091 7.71388C102.864 7.71388 102.637 7.71388 102.41 7.71388C102.26 7.71388 102.116 7.70736 101.971 7.74157C101.849 7.77042 101.718 7.82068 101.593 7.82068C101.31 7.82068 101.055 7.98787 100.767 7.99868C100.675 8.00212 100.612 8.06951 100.531 8.10153C100.491 8.11696 100.441 8.10396 100.399 8.11339C100.305 8.13527 100.24 8.20902 100.152 8.24393C99.9082 8.34036 99.7022 8.49842 99.4576 8.5841C99.3812 8.61085 99.2258 8.69928 99.1697 8.76408C99.1053 8.83955 98.9941 8.82635 98.9085 8.87285C98.7117 8.97965 98.5287 9.12933 98.3374 9.24072C98.1967 9.3218 98.0734 9.42846 97.9474 9.53343C97.8306 9.63071 97.7019 9.67113 97.6053 9.79845C97.4554 9.9984 97.2595 10.2142 97.0894 10.3997C97.013 10.4824 97.0222 10.5771 96.9689 10.6766C96.8852 10.8351 96.7978 10.9526 96.7399 11.1236C96.6351 11.4352 96.5275 11.7489 96.4199 12.065C96.3077 12.395 96.2966 12.7808 96.2396 13.1251C96.1246 13.8284 96.1577 14.5481 96.1577 15.2611C96.1577 15.648 96.1577 16.035 96.1577 16.422C96.1577 16.8479 96.326 17.3044 96.4999 17.6818C96.6829 18.0799 96.9459 18.4679 97.2347 18.7815C97.3349 18.8907 97.4131 19.0078 97.5253 19.1058C97.597 19.1679 97.6311 19.2691 97.7019 19.3353C97.7966 19.4229 97.907 19.4849 97.999 19.5765C98.2234 19.8008 98.5305 19.9544 98.7844 20.1382C99.1219 20.3829 99.475 20.5651 99.8576 20.7098C100.074 20.7915 100.279 20.9057 100.494 20.9926C100.767 21.1029 101.07 21.0994 101.357 21.0994C101.78 21.0994 102.203 21.0994 102.626 21.0994C103.081 21.0994 103.612 21.1738 104.049 21.0124C104.471 20.8563 104.977 20.8364 105.34 20.5219C105.464 20.4145 105.607 20.3358 105.74 20.2431C105.822 20.1863 105.921 20.1567 105.998 20.0947C106.053 20.0513 106.076 19.9894 106.142 19.9622C106.279 19.9064 106.373 19.711 106.504 19.6398" stroke="#5100C1" stroke-width="4" stroke-linecap="round"/>
<path d="M121.442 26.9182C121.956 26.9182 122.473 26.887 122.977 26.8713C123.455 26.8565 123.901 26.7775 124.377 26.7775C125.368 26.7775 126.345 26.7306 127.332 26.7306C127.851 26.7306 128.369 26.7306 128.888 26.7306C129.128 26.7306 129.47 26.7928 129.703 26.7254C129.823 26.6906 129.949 26.557 130.072 26.5429C130.144 26.5346 130.364 26.5857 130.407 26.5221C130.547 26.3201 130.934 26.4045 131.117 26.2719C131.18 26.2263 131.356 26.2614 131.434 26.2614C131.513 26.2614 131.718 26.1721 131.798 26.1311C131.902 26.0777 131.998 26.0617 132.1 26.006C132.149 25.9793 132.27 25.7894 132.273 25.7454C132.287 25.453 132.316 25.1787 132.316 24.8801C132.316 23.9096 132.316 22.9392 132.316 21.9688C132.316 21.4195 132.273 20.87 132.273 20.3294C132.273 20.032 132.186 19.8005 132.186 19.4849C132.186 19.1954 132.056 18.9066 132.056 18.604C132.056 18.2634 132.056 17.9229 132.056 17.5823C132.056 17.465 132.056 17.3477 132.056 17.2305C132.056 17.1337 132.056 17.5481 132.056 17.6292C132.056 17.7088 132.06 18.4335 132.134 18.3694C132.325 18.2026 132.316 17.9157 132.316 17.6735C132.316 17.1662 132.316 16.6588 132.316 16.1514C132.316 15.923 132.359 15.7064 132.359 15.4972C132.359 15.3475 132.438 15.2003 132.445 15.049C132.451 14.915 132.434 14.7932 132.489 14.6736" stroke="#5100C1" stroke-width="4" stroke-linecap="round"/>
<path d="M129.015 25.2521C129.204 25.3388 129.446 25.3054 129.646 25.3054C129.804 25.3054 129.909 25.2466 130.043 25.1575C130.14 25.0927 130.214 24.997 130.3 24.9178C130.371 24.8522 130.462 24.809 130.514 24.7196C130.538 24.6774 130.622 24.647 130.661 24.6072C130.74 24.5245 130.764 24.4686 130.826 24.3735C130.878 24.2961 130.826 24.205 130.854 24.1221C130.879 24.0483 130.945 23.9514 130.998 23.8943" stroke="#5100C1" stroke-linecap="round"/>
<path d="M122.771 28.2076C122.695 28.2076 122.925 28.2076 123.001 28.2076C123.119 28.2076 123.199 28.2576 123.308 28.2874C123.379 28.3066 123.393 28.3407 123.481 28.3407C123.575 28.3407 123.669 28.3407 123.763 28.3407C124.05 28.3407 124.338 28.3407 124.627 28.3407C125.253 28.3407 125.88 28.3407 126.507 28.3407C126.667 28.3407 126.828 28.3407 126.988 28.3407C127.178 28.3407 127.353 28.2874 127.541 28.2874C127.702 28.2874 127.866 28.2608 128.03 28.2608C128.114 28.2608 128.197 28.2608 128.28 28.2608C128.417 28.2608 128.196 28.2608 128.158 28.2608C128.048 28.2608 127.265 28.214 127.254 28.2889C127.233 28.4166 127.583 28.3673 127.657 28.3673C127.788 28.3673 127.919 28.3673 128.049 28.3673C128.291 28.3673 128.54 28.3407 128.77 28.3407C128.886 28.3407 129.007 28.3141 129.128 28.3141C129.275 28.3141 129.432 28.3303 129.578 28.3126C129.907 28.2728 130.228 28.2608 130.563 28.2608C130.659 28.2608 130.755 28.2608 130.852 28.2608C130.941 28.2608 131.1 28.2957 131.184 28.2549C131.321 28.1878 131.529 28.2114 131.654 28.1277C131.775 28.0471 131.931 28.0465 132.062 27.9946C132.208 27.937 132.346 27.8869 132.481 27.8067C132.539 27.7724 132.595 27.7476 132.654 27.7136C132.692 27.6912 132.841 27.6424 132.859 27.6071C132.917 27.4974 133.096 27.4805 133.154 27.3704C133.21 27.2631 133.38 27.1817 133.398 27.0627C133.409 26.9881 133.522 26.8262 133.564 26.764C133.699 26.5627 133.74 26.2738 133.74 26.0244" stroke="#5100C1" stroke-linecap="round"/>
<path d="M155.291 7.23901V22.4953" stroke="#5100C1" stroke-width="4" stroke-linecap="round"/>
<path d="M169.143 7V22" stroke="#5100C1" stroke-width="4" stroke-linecap="round"/>
</g>
<rect x="183" width="206" height="31" rx="15.5" fill="#FFCD23"/>
<path d="M205.784 24C205.624 24 205.496 23.952 205.4 23.856C205.304 23.76 205.256 23.632 205.256 23.472V7.752C205.256 7.576 205.304 7.44 205.4 7.344C205.496 7.248 205.624 7.2 205.784 7.2H215.768C215.944 7.2 216.08 7.248 216.176 7.344C216.272 7.44 216.32 7.576 216.32 7.752V8.112C216.32 8.272 216.272 8.4 216.176 8.496C216.08 8.592 215.944 8.64 215.768 8.64H206.768V14.328H212.12C213.736 14.328 214.976 14.768 215.84 15.648C216.72 16.512 217.16 17.664 217.16 19.104C217.16 19.632 217.056 20.184 216.848 20.76C216.656 21.336 216.352 21.872 215.936 22.368C215.536 22.848 215.016 23.24 214.376 23.544C213.752 23.848 213 24 212.12 24H205.784ZM206.768 22.56H211.88C212.68 22.56 213.36 22.4 213.92 22.08C214.48 21.76 214.904 21.336 215.192 20.808C215.496 20.264 215.648 19.672 215.648 19.032C215.648 18.056 215.336 17.272 214.712 16.68C214.104 16.072 213.16 15.768 211.88 15.768H206.768V22.56ZM219.22 24C219.092 24 218.98 23.952 218.884 23.856C218.788 23.76 218.74 23.648 218.74 23.52C218.74 23.44 218.756 23.352 218.788 23.256L224.86 7.68C224.924 7.52 225.004 7.4 225.1 7.32C225.212 7.24 225.364 7.2 225.556 7.2H226.372C226.564 7.2 226.708 7.24 226.804 7.32C226.916 7.4 227.004 7.52 227.068 7.68L233.14 23.256C233.172 23.352 233.188 23.44 233.188 23.52C233.188 23.648 233.14 23.76 233.044 23.856C232.948 23.952 232.836 24 232.708 24H232.228C232.068 24 231.948 23.96 231.868 23.88C231.788 23.784 231.732 23.704 231.7 23.64L230.212 19.8H221.716L220.228 23.64C220.212 23.704 220.156 23.784 220.06 23.88C219.98 23.96 219.86 24 219.7 24H219.22ZM222.292 18.36H229.636L225.964 8.904L222.292 18.36ZM240.589 24.24C239.725 24.24 238.941 24.144 238.237 23.952C237.533 23.744 236.933 23.456 236.437 23.088C235.941 22.72 235.541 22.288 235.237 21.792C234.949 21.28 234.781 20.728 234.733 20.136C234.717 19.992 234.757 19.88 234.853 19.8C234.965 19.72 235.093 19.68 235.237 19.68H235.621C235.749 19.68 235.869 19.712 235.981 19.776C236.109 19.84 236.205 19.992 236.269 20.232C236.461 20.984 236.925 21.6 237.661 22.08C238.397 22.56 239.373 22.8 240.589 22.8C241.405 22.8 242.157 22.664 242.845 22.392C243.549 22.12 244.109 21.728 244.525 21.216C244.957 20.704 245.173 20.088 245.173 19.368C245.173 18.28 244.781 17.44 243.997 16.848C243.229 16.24 242.197 15.936 240.901 15.936H239.197C239.037 15.936 238.909 15.888 238.813 15.792C238.717 15.696 238.669 15.568 238.669 15.408V15.048C238.669 14.872 238.717 14.736 238.813 14.64C238.909 14.544 239.037 14.496 239.197 14.496H240.781C241.901 14.496 242.813 14.248 243.517 13.752C244.221 13.24 244.573 12.44 244.573 11.352C244.573 10.744 244.389 10.224 244.021 9.792C243.669 9.344 243.197 9 242.605 8.76C242.029 8.52 241.389 8.4 240.685 8.4C239.597 8.4 238.669 8.6 237.901 9C237.149 9.4 236.677 10.072 236.485 11.016C236.453 11.208 236.389 11.344 236.293 11.424C236.197 11.488 236.085 11.52 235.957 11.52H235.477C235.333 11.52 235.205 11.48 235.093 11.4C234.997 11.304 234.957 11.184 234.973 11.04C235.021 10.4 235.189 9.832 235.477 9.336C235.765 8.824 236.149 8.392 236.629 8.04C237.125 7.688 237.709 7.424 238.381 7.248C239.069 7.056 239.837 6.96 240.685 6.96C241.933 6.96 242.949 7.176 243.733 7.608C244.533 8.04 245.125 8.592 245.509 9.264C245.893 9.92 246.085 10.616 246.085 11.352C246.085 11.864 246.021 12.36 245.893 12.84C245.765 13.32 245.557 13.76 245.269 14.16C244.997 14.544 244.629 14.88 244.165 15.168C244.725 15.44 245.189 15.784 245.557 16.2C245.925 16.616 246.205 17.096 246.397 17.64C246.589 18.168 246.685 18.744 246.685 19.368C246.685 20.328 246.437 21.176 245.941 21.912C245.445 22.632 244.741 23.2 243.829 23.616C242.917 24.032 241.837 24.24 240.589 24.24ZM249.197 24C249.069 24 248.957 23.952 248.861 23.856C248.765 23.76 248.717 23.648 248.717 23.52C248.717 23.44 248.733 23.352 248.765 23.256L254.837 7.68C254.901 7.52 254.981 7.4 255.077 7.32C255.189 7.24 255.341 7.2 255.533 7.2H256.349C256.541 7.2 256.685 7.24 256.781 7.32C256.893 7.4 256.981 7.52 257.045 7.68L263.117 23.256C263.149 23.352 263.165 23.44 263.165 23.52C263.165 23.648 263.117 23.76 263.021 23.856C262.925 23.952 262.813 24 262.685 24H262.205C262.045 24 261.925 23.96 261.845 23.88C261.765 23.784 261.709 23.704 261.677 23.64L260.189 19.8H251.693L250.205 23.64C250.189 23.704 250.133 23.784 250.037 23.88C249.957 23.96 249.837 24 249.677 24H249.197ZM252.269 18.36H259.613L255.941 8.904L252.269 18.36ZM276.754 24.24C275.89 24.24 275.106 24.144 274.402 23.952C273.698 23.744 273.098 23.456 272.602 23.088C272.106 22.72 271.706 22.288 271.402 21.792C271.114 21.28 270.946 20.728 270.898 20.136C270.882 19.992 270.922 19.88 271.018 19.8C271.13 19.72 271.258 19.68 271.402 19.68H271.786C271.914 19.68 272.034 19.712 272.146 19.776C272.274 19.84 272.37 19.992 272.434 20.232C272.626 20.984 273.09 21.6 273.826 22.08C274.562 22.56 275.538 22.8 276.754 22.8C277.57 22.8 278.322 22.664 279.01 22.392C279.714 22.12 280.274 21.728 280.69 21.216C281.122 20.704 281.338 20.088 281.338 19.368C281.338 18.28 280.946 17.44 280.162 16.848C279.394 16.24 278.362 15.936 277.066 15.936H275.362C275.202 15.936 275.074 15.888 274.978 15.792C274.882 15.696 274.834 15.568 274.834 15.408V15.048C274.834 14.872 274.882 14.736 274.978 14.64C275.074 14.544 275.202 14.496 275.362 14.496H276.946C278.066 14.496 278.978 14.248 279.682 13.752C280.386 13.24 280.738 12.44 280.738 11.352C280.738 10.744 280.554 10.224 280.186 9.792C279.834 9.344 279.362 9 278.77 8.76C278.194 8.52 277.554 8.4 276.85 8.4C275.762 8.4 274.834 8.6 274.066 9C273.314 9.4 272.842 10.072 272.65 11.016C272.618 11.208 272.554 11.344 272.458 11.424C272.362 11.488 272.25 11.52 272.122 11.52H271.642C271.498 11.52 271.37 11.48 271.258 11.4C271.162 11.304 271.122 11.184 271.138 11.04C271.186 10.4 271.354 9.832 271.642 9.336C271.93 8.824 272.314 8.392 272.794 8.04C273.29 7.688 273.874 7.424 274.546 7.248C275.234 7.056 276.002 6.96 276.85 6.96C278.098 6.96 279.114 7.176 279.898 7.608C280.698 8.04 281.29 8.592 281.674 9.264C282.058 9.92 282.25 10.616 282.25 11.352C282.25 11.864 282.186 12.36 282.057 12.84C281.93 13.32 281.722 13.76 281.434 14.16C281.162 14.544 280.794 14.88 280.33 15.168C280.89 15.44 281.354 15.784 281.722 16.2C282.09 16.616 282.37 17.096 282.562 17.64C282.754 18.168 282.85 18.744 282.85 19.368C282.85 20.328 282.602 21.176 282.106 21.912C281.61 22.632 280.906 23.2 279.994 23.616C279.082 24.032 278.002 24.24 276.754 24.24ZM287.089 24C286.929 24 286.801 23.952 286.705 23.856C286.609 23.76 286.561 23.632 286.561 23.472V7.752C286.561 7.576 286.609 7.44 286.705 7.344C286.801 7.248 286.929 7.2 287.089 7.2H287.521C287.697 7.2 287.833 7.248 287.929 7.344C288.025 7.44 288.073 7.576 288.073 7.752V14.76H297.337V7.752C297.337 7.576 297.385 7.44 297.481 7.344C297.577 7.248 297.705 7.2 297.865 7.2H298.297C298.473 7.2 298.609 7.248 298.705 7.344C298.801 7.44 298.849 7.576 298.849 7.752V23.472C298.849 23.632 298.801 23.76 298.705 23.856C298.609 23.952 298.473 24 298.297 24H297.865C297.705 24 297.577 23.952 297.481 23.856C297.385 23.76 297.337 23.632 297.337 23.472V16.2H288.073V23.472C288.073 23.632 288.025 23.76 287.929 23.856C287.833 23.952 287.697 24 287.521 24H287.089ZM302.165 24C302.037 24 301.925 23.952 301.829 23.856C301.733 23.76 301.685 23.648 301.685 23.52C301.685 23.44 301.701 23.352 301.733 23.256L307.805 7.68C307.869 7.52 307.949 7.4 308.045 7.32C308.157 7.24 308.309 7.2 308.501 7.2H309.317C309.509 7.2 309.653 7.24 309.749 7.32C309.861 7.4 309.949 7.52 310.013 7.68L316.085 23.256C316.117 23.352 316.133 23.44 316.133 23.52C316.133 23.648 316.085 23.76 315.989 23.856C315.893 23.952 315.781 24 315.653 24H315.173C315.013 24 314.893 23.96 314.813 23.88C314.733 23.784 314.677 23.704 314.645 23.64L313.157 19.8H304.661L303.173 23.64C303.157 23.704 303.101 23.784 303.005 23.88C302.925 23.96 302.805 24 302.645 24H302.165ZM305.237 18.36H312.581L308.909 8.904L305.237 18.36ZM319.503 24C319.343 24 319.215 23.952 319.119 23.856C319.023 23.76 318.975 23.632 318.975 23.472V7.752C318.975 7.576 319.023 7.44 319.119 7.344C319.215 7.248 319.343 7.2 319.503 7.2H319.935C320.111 7.2 320.247 7.248 320.343 7.344C320.439 7.44 320.487 7.576 320.487 7.752V14.76H329.751V7.752C329.751 7.576 329.799 7.44 329.895 7.344C329.991 7.248 330.119 7.2 330.279 7.2H330.711C330.887 7.2 331.023 7.248 331.119 7.344C331.215 7.44 331.263 7.576 331.263 7.752V23.472C331.263 23.632 331.215 23.76 331.119 23.856C331.023 23.952 330.887 24 330.711 24H330.279C330.119 24 329.991 23.952 329.895 23.856C329.799 23.76 329.751 23.632 329.751 23.472V16.2H320.487V23.472C320.487 23.632 320.439 23.76 320.343 23.856C320.247 23.952 320.111 24 319.935 24H319.503ZM336.307 24C336.147 24 336.019 23.952 335.923 23.856C335.827 23.744 335.779 23.608 335.779 23.448V7.752C335.779 7.576 335.827 7.44 335.923 7.344C336.035 7.248 336.171 7.2 336.331 7.2H336.763C336.923 7.2 337.051 7.248 337.147 7.344C337.243 7.44 337.291 7.576 337.291 7.752V21.36L347.155 7.488C347.187 7.456 347.235 7.4 347.299 7.32C347.379 7.24 347.499 7.2 347.659 7.2H348.163C348.323 7.2 348.451 7.248 348.547 7.344C348.643 7.44 348.691 7.576 348.691 7.752V23.472C348.691 23.632 348.643 23.76 348.547 23.856C348.451 23.952 348.323 24 348.163 24H347.731C347.571 24 347.435 23.952 347.323 23.856C347.227 23.76 347.179 23.632 347.179 23.472V9.888L337.339 23.712C337.323 23.744 337.275 23.8 337.195 23.88C337.115 23.96 336.995 24 336.835 24H336.307ZM353.722 24C353.562 24 353.434 23.952 353.338 23.856C353.242 23.744 353.194 23.608 353.194 23.448V7.752C353.194 7.576 353.242 7.44 353.338 7.344C353.45 7.248 353.586 7.2 353.746 7.2H354.178C354.338 7.2 354.466 7.248 354.562 7.344C354.658 7.44 354.706 7.576 354.706 7.752V21.36L364.57 7.488C364.602 7.456 364.65 7.4 364.714 7.32C364.794 7.24 364.914 7.2 365.074 7.2H365.578C365.738 7.2 365.866 7.248 365.962 7.344C366.058 7.44 366.106 7.576 366.106 7.752V23.472C366.106 23.632 366.058 23.76 365.962 23.856C365.866 23.952 365.738 24 365.578 24H365.146C364.986 24 364.85 23.952 364.738 23.856C364.642 23.76 364.594 23.632 364.594 23.472V9.888L354.754 23.712C354.738 23.744 354.69 23.8 354.61 23.88C354.53 23.96 354.41 24 354.25 24H353.722ZM359.506 6.24C358.578 6.24 357.858 6.104 357.346 5.832C356.85 5.56 356.506 5.208 356.314 4.776C356.122 4.344 356.026 3.904 356.026 3.456C356.026 3.328 356.066 3.224 356.146 3.144C356.226 3.048 356.338 3 356.482 3H356.842C356.986 3 357.098 3.048 357.178 3.144C357.258 3.224 357.298 3.328 357.298 3.456C357.298 3.712 357.354 3.96 357.466 4.2C357.594 4.44 357.818 4.64 358.138 4.8C358.458 4.96 358.914 5.04 359.506 5.04C360.114 5.04 360.57 4.96 360.874 4.8C361.194 4.64 361.41 4.44 361.522 4.2C361.65 3.96 361.714 3.712 361.714 3.456C361.714 3.328 361.754 3.224 361.834 3.144C361.914 3.048 362.026 3 362.17 3H362.53C362.674 3 362.786 3.048 362.866 3.144C362.946 3.224 362.986 3.328 362.986 3.456C362.986 3.904 362.89 4.344 362.698 4.776C362.506 5.208 362.162 5.56 361.666 5.832C361.17 6.104 360.45 6.24 359.506 6.24Z" fill="#5100C1"/>
<defs>
<clipPath id="clip0_1023_171">
<rect width="170.142" height="29" fill="white" transform="translate(0.839844)"/>
</clipPath>
</defs>
</svg>
