<svg width="185" height="29" viewBox="0 0 185 29" fill="none" xmlns="http://www.w3.org/2000/svg">
<circle cx="8.5" cy="14.5" r="6.5" fill="white" stroke="#5100C1" stroke-width="4"/>
<circle cx="53.5" cy="14.5" r="6.5" fill="white" stroke="#5100C1" stroke-width="4"/>
<circle cx="91.5" cy="14.5" r="6.5" fill="white" stroke="#5100C1" stroke-width="4"/>
<circle cx="155.5" cy="14.5" r="6.5" fill="white" stroke="#5100C1" stroke-width="4"/>
<circle cx="136.5" cy="14.5" r="6.5" fill="white" stroke="#5100C1" stroke-width="4"/>
<path d="M15 21V16" stroke="#5100C1" stroke-width="4" stroke-linecap="round"/>
<path d="M15 21V16" stroke="#5100C1" stroke-width="4" stroke-linecap="round"/>
<circle cx="71.5" cy="14.5" r="6.5" fill="white" stroke="#5100C1" stroke-width="4"/>
<path d="M78 21V16" stroke="#5100C1" stroke-width="4" stroke-linecap="round"/>
<path d="M78 21V16" stroke="#5100C1" stroke-width="4" stroke-linecap="round"/>
<path d="M85 27L85 16" stroke="#5100C1" stroke-width="4" stroke-linecap="round"/>
<path d="M85 27L85 16" stroke="#5100C1" stroke-width="4" stroke-linecap="round"/>
<path d="M143 19L143 8" stroke="#5100C1" stroke-width="4" stroke-linecap="round"/>
<path d="M143 19L143 8" stroke="#5100C1" stroke-width="4" stroke-linecap="round"/>
<path d="M176 15L182.778 7.99999" stroke="#5100C1" stroke-width="4" stroke-linecap="round"/>
<path d="M176 15L182.778 7.99999" stroke="#5100C1" stroke-width="4" stroke-linecap="round"/>
<path d="M169 8L175.89 14.89" stroke="#5100C1" stroke-width="4" stroke-linecap="round"/>
<path d="M169 8L175.89 14.89" stroke="#5100C1" stroke-width="4" stroke-linecap="round"/>
<path d="M21 21V8" stroke="#5100C1" stroke-width="4" stroke-linecap="round"/>
<path d="M21 21V8" stroke="#5100C1" stroke-width="4" stroke-linecap="round"/>
<path d="M30.866 8L24.866 14" stroke="#5100C1" stroke-width="4" stroke-linecap="round"/>
<path d="M30.866 8L24.866 14" stroke="#5100C1" stroke-width="4" stroke-linecap="round"/>
<path d="M30.866 21L24.866 15" stroke="#5100C1" stroke-width="4" stroke-linecap="round"/>
<path d="M30.866 21L24.866 15" stroke="#5100C1" stroke-width="4" stroke-linecap="round"/>
<path d="M48.6523 8.0843C48.6834 8.07987 48.4296 7.95206 48.3965 7.92495C48.3701 7.90336 48.2846 7.90138 48.277 7.87463C48.2492 7.77719 48.2103 7.7459 48.103 7.70688C47.8433 7.61246 47.6499 7.32987 47.4068 7.18688C47.2205 7.07731 46.8849 6.85052 46.7841 6.66897C46.6174 6.36892 46.3908 6.10276 46.3144 5.75897C46.2407 5.42721 46.2368 5.11483 46.2368 4.76299C46.2368 4.53663 46.3613 4.41137 46.4842 4.2325C46.5278 4.16908 46.5931 4.10718 46.6226 4.0375C46.6831 3.89454 46.8473 3.84054 46.9078 3.7146C47.0487 3.42093 47.4128 3.1342 47.6542 2.93669C47.7995 2.81783 48.0606 2.69443 48.2372 2.62007C48.3905 2.55549 48.5328 2.44708 48.6901 2.36846C48.7823 2.32232 48.8576 2.31993 48.9543 2.30975C49.0832 2.29618 49.2083 2.17956 49.3485 2.16088C49.4414 2.14848 49.54 2.16124 49.6336 2.15878C49.7735 2.1551 49.9052 2.08849 50.0404 2.0833C50.2539 2.07508 50.4307 2.00781 50.6527 2.00781C50.8602 2.00781 51.0678 2.00781 51.2754 2.00781C52.256 2.00781 53.2366 2.00781 54.2172 2.00781C55.2945 2.00781 56.3609 1.97007 57.44 1.97007C57.7062 1.97007 57.9264 1.85684 58.1864 1.85684C58.4807 1.85684 58.7749 1.85684 59.0692 1.85684C59.5095 1.85684 59.9498 1.85684 60.3901 1.85684" stroke="#5100C1" stroke-width="3" stroke-linecap="round"/>
<path d="M50.5395 8.27301C50.3754 8.172 50.1824 8.12019 50.0111 8.02979C49.9277 7.98577 49.7861 7.88024 49.7176 7.81172C49.6289 7.72306 49.9086 7.97768 50.0195 8.03608C50.0669 8.06101 50.1399 8.04458 50.1914 8.04656C50.2126 8.04737 50.3056 8.0949 50.2921 8.06333C50.2695 8.01063 50.2408 7.9533 50.1998 7.91237C49.913 7.6255 49.4233 7.59454 49.1892 7.25397C49.1368 7.17774 49.0229 7.13387 48.9543 7.06526C48.8722 6.98316 48.7944 6.88256 48.6901 6.83042C48.5816 6.77613 48.5153 6.67606 48.426 6.59139C48.3893 6.55664 48.3307 6.55066 48.2959 6.5159C48.2507 6.47069 48.2831 6.42439 48.2079 6.39429C48.1197 6.35902 48.0108 6.22124 48.0108 6.1301C48.0108 6.06599 47.9952 5.86557 47.9353 5.82816C47.8638 5.78346 47.8976 5.63503 47.8976 5.55558C47.8976 5.43549 47.8221 5.35635 47.8221 5.25364C47.8221 5.04111 47.8096 4.82418 47.8221 4.61202C47.8297 4.48321 48.0695 4.41293 48.1324 4.31008C48.1833 4.22686 48.2687 4.06649 48.3505 4.01653C48.4342 3.96537 48.5305 3.86634 48.5853 3.78169C48.6475 3.68557 48.7594 3.73654 48.8411 3.69782C48.977 3.63346 49.1162 3.58816 49.2563 3.52588C49.3163 3.49919 49.4752 3.40694 49.5205 3.40427C49.6313 3.39775 49.7579 3.37551 49.8602 3.32879C49.9712 3.27802 50.0966 3.28837 50.1998 3.24491C50.3811 3.16859 50.6452 3.21556 50.8415 3.21556C51.358 3.21556 51.8745 3.21556 52.391 3.21556C53.4778 3.21556 54.5646 3.21556 55.6515 3.21556C56.2365 3.21556 56.8215 3.21556 57.4065 3.21556C57.6484 3.21556 58.0358 3.29287 58.2599 3.21137C58.4121 3.156 58.5044 3.14008 58.6709 3.14008C58.8025 3.14008 58.8452 3.06459 58.9728 3.06459C59.1816 3.06459 59.415 3.09414 59.6207 3.06249C59.7795 3.03806 59.6799 3.02268 59.5725 3.03524C59.4082 3.05444 59.2487 3.09688 59.0902 3.14217C58.9942 3.16962 58.9679 3.21556 58.8596 3.21556C58.7994 3.21556 58.7538 3.20544 58.7107 3.2533C58.6084 3.36699 58.3383 3.34485 58.7107 3.32669C58.8846 3.31821 59.0844 3.31374 59.258 3.28895C59.4724 3.25831 59.7013 3.17782 59.9205 3.17782C60.2888 3.17782 60.8332 3.16036 61.0864 2.83814C61.2206 2.6673 61.447 2.57614 61.447 2.32862C61.447 2.0651 61.4423 1.88988 61.2583 1.70587" stroke="#5100C1" stroke-linecap="round"/>
<path d="M45.0669 4.15912C45.0669 3.94818 45.0663 3.75762 45.1822 3.57412C45.3343 3.33338 45.533 3.1196 45.6896 2.87589C45.8611 2.60914 46.1808 2.34265 46.4382 2.15879C46.6618 1.99906 46.9478 1.76728 47.2182 1.71427C47.3684 1.68482 47.4793 1.5685 47.6334 1.55491C47.6607 1.55249 47.935 1.47554 47.9521 1.45846C48.0837 1.32682 48.3803 1.31585 48.5601 1.2341C48.6734 1.18263 48.8532 1.21523 48.9753 1.21523C49.1507 1.21523 49.2883 1.102 49.4743 1.102C49.7288 1.102 49.9789 1.02652 50.2376 1.02652" stroke="#5100C1" stroke-linecap="round"/>
<path d="M45.2556 4.00815C44.7269 4.31916 45.0462 5.16363 45.264 5.55558C45.3418 5.69565 45.4894 5.76378 45.5219 5.90994C45.5251 5.92455 45.608 6.06081 45.5177 6.02316C45.4747 6.00525 45.2729 5.93936 45.2598 5.90994C45.1243 5.60521 45.0486 5.18664 45.2556 4.87622" stroke="#5100C1" stroke-linecap="round"/>
<path d="M50.3885 7.55591C50.1895 7.55591 49.8461 7.62956 49.6714 7.50979C49.553 7.42861 49.4121 7.48437 49.3129 7.40495C49.1018 7.23608 48.7829 7.14987 48.5979 6.9143C48.284 6.51481 47.822 6.17569 47.822 5.60171C47.822 5.54395 47.8217 5.69429 47.822 5.70655C47.8246 5.7908 47.9259 5.90218 47.9814 5.96236C48.0697 6.05801 48.1652 6.18209 48.2791 6.25171C48.5732 6.43138 48.9354 6.42365 49.273 6.42365C49.5072 6.42365 49.7413 6.42365 49.9755 6.42365C50.2875 6.42365 50.5623 6.49913 50.8813 6.49913C51.1614 6.49913 51.4521 6.53688 51.7388 6.53688C51.7595 6.53688 51.9554 6.53688 51.8835 6.53688C51.5516 6.53688 51.2168 6.52387 50.8855 6.54317C50.4544 6.56828 49.9996 6.66898 49.5959 6.83043C49.5105 6.86458 50.5395 6.90165 50.5395 6.97091C50.5395 7.0698 50.2932 7.11667 50.2292 7.18269C50.188 7.22513 50.6352 7.14998 50.204 7.30849C49.7283 7.48339 49.2671 7.5984 48.7719 7.66914C48.5437 7.70174 48.4796 7.98266 48.4343 8.18076C48.4166 8.25813 48.2821 8.5608 48.3358 8.6085C48.3552 8.62579 48.5018 8.66522 48.4091 8.64205C48.3324 8.62286 48.2689 8.61569 48.1911 8.6127C48.1088 8.60953 48.0482 8.5524 47.9751 8.52044C47.8926 8.48435 47.7926 8.49947 47.7046 8.49947C47.5063 8.49947 47.2815 8.47826 47.1049 8.39463C46.9984 8.34414 46.9158 8.3481 46.8219 8.25415C46.748 8.18023 46.6264 8.13353 46.5472 8.07592C46.4546 8.00858 46.3831 7.90225 46.2746 7.85576C46.1493 7.80203 46.126 7.6559 46.0104 7.58527C45.8373 7.4795 45.8011 7.19708 45.6498 7.06736C45.4514 6.8973 45.3994 6.59197 45.2744 6.36704C45.0692 5.99759 44.9432 5.59135 44.8761 5.15509C44.7977 4.64593 44.8404 4.10771 44.8404 3.59089C44.8404 3.3564 45.0672 3.0276 45.2724 2.91572C45.3657 2.86479 45.6455 2.77162 45.7001 2.68717C45.8034 2.5275 45.986 2.47941 46.1048 2.34749C46.271 2.16285 46.6186 1.98218 46.8408 1.86523C47.0413 1.75968 47.0976 1.73702 46.8366 1.87571C46.6229 1.9892 46.3401 2.13307 46.1614 2.29298C46.0724 2.37256 45.8864 2.43669 45.7777 2.48378C45.5539 2.58074 45.3994 2.82785 45.1801 2.90524C45.0472 2.95216 44.9331 3.11201 44.8215 3.19879C44.7366 3.26485 44.9385 2.96227 44.9788 2.92201C45.2047 2.69614 45.5068 2.53236 45.7462 2.29298C46.0501 1.98912 46.4617 1.81923 46.8324 1.61781C46.9566 1.5503 47.1549 1.59037 47.2937 1.55071C47.4496 1.50616 47.6084 1.37816 47.7759 1.36619C47.957 1.35326 48.1157 1.36824 48.2917 1.30958C48.3586 1.28729 48.4232 1.29071 48.493 1.29071C48.6557 1.29071 48.2802 1.29071 48.254 1.29071C48.0474 1.29071 47.8321 1.26471 47.6333 1.32845C47.5285 1.36208 47.1782 1.4125 47.1028 1.50039C47.0041 1.61558 46.8441 1.74458 46.7108 1.8191C46.5468 1.91071 46.398 2.08989 46.2201 2.15459C45.9392 2.25675 45.709 2.512 45.4233 2.61588C45.324 2.65199 45.2258 2.75983 45.1507 2.82975C45.1087 2.86893 44.9594 2.90564 44.9536 2.95137C44.9485 2.9928 44.7961 3.14247 44.7628 3.17572C44.3821 3.5565 44.236 4.43211 44.5385 4.91606C44.6131 5.0355 44.6644 5.18415 44.7356 5.31235C44.7563 5.34966 44.7908 5.37929 44.8006 5.42348C44.8127 5.47798 44.7668 5.25019 44.7293 5.20332C44.5642 4.99696 44.7733 4.55666 44.6307 4.31218C44.4981 4.08489 44.3666 4.4762 44.3519 4.55751C44.3236 4.71281 44.3498 4.89853 44.3498 5.05654C44.3498 5.17496 44.4856 5.34801 44.5385 5.45913C44.6021 5.59279 44.6586 5.71469 44.7272 5.83655C44.8822 6.11215 45.0386 6.35369 45.2388 6.60397C45.3402 6.73069 45.5227 6.76728 45.5596 6.93317C45.5757 7.00535 45.8281 7.17269 45.8972 7.2372C46.1223 7.44734 45.5517 6.71654 45.4632 6.42155C45.4109 6.24731 45.3033 6.03784 45.2933 5.85752C45.2859 5.72468 45.2297 5.39596 45.1612 5.29558C45.0525 5.13618 44.9447 5.17816 44.7565 5.17816C44.6224 5.17816 44.5007 5.14488 44.5007 5.31025C44.5007 5.45114 44.4925 5.57032 44.5007 5.70655C44.5146 5.93594 44.7691 6.23966 44.8949 6.43204C45.0506 6.67007 45.2114 6.87594 45.3898 7.10301C45.4662 7.20026 45.6086 7.25154 45.6707 7.33785C45.752 7.45073 45.9022 7.55089 46.0314 7.59785C46.1125 7.62734 46.3962 7.7617 46.434 7.82011C46.5178 7.94961 46.7212 7.90091 46.8198 8.02769C46.8893 8.11703 46.4278 8.04656 46.3795 8.04656C46.1735 8.04656 46.0925 8.05796 45.9538 7.95011C45.5133 7.60753 45.2014 7.22481 44.8572 6.7822C44.7844 6.68859 44.6889 6.50097 44.6601 6.38591C44.6304 6.26697 44.6171 6.24164 44.5427 6.14058C44.4716 6.04406 44.5037 5.89751 44.4819 5.78413C44.3856 5.28341 44.5065 4.82741 44.7775 4.40863C44.896 4.22558 45.0495 4.09875 45.199 3.93266C45.2533 3.87232 45.4933 3.61276 45.4359 3.74815C45.2688 4.14251 45.1218 4.54481 45.0669 4.97057C45.03 5.25654 44.9536 5.51925 44.9536 5.803C44.9536 6.319 45.2982 6.98668 45.6624 7.33785C45.9683 7.6329 46.28 8.04048 46.6814 8.18915C46.7681 8.22126 46.7812 8.31798 46.8617 8.3464C46.9665 8.3834 47.0514 8.48975 47.1427 8.55818C47.3 8.6762 47.5201 8.77376 47.5201 8.98173C47.5201 9.11107 47.2008 8.8124 47.1091 8.79931C47.0127 8.78553 46.839 8.57733 46.7569 8.50786C46.4939 8.28531 46.2276 8.12952 45.9853 7.88721C45.7157 7.61763 45.4413 7.3981 45.329 7.01914C45.2061 6.60451 45.1168 6.23607 45.2556 5.81977" stroke="#5100C1" stroke-linecap="round"/>
<path d="M115.71 10.3838C115.582 10.1393 115.423 10.0892 115.24 9.91309C115.022 9.70319 114.852 9.44085 114.658 9.209C114.46 8.97047 114.19 8.84123 113.915 8.71061C113.624 8.57263 113.345 8.4173 113.058 8.26561C112.782 8.11935 112.481 8.03833 112.19 7.92939C111.989 7.85417 111.773 7.84049 111.569 7.76524C111.448 7.72059 111.309 7.71381 111.181 7.71381C110.934 7.71381 110.687 7.71381 110.44 7.71381C110.277 7.71381 110.121 7.70729 109.963 7.7415C109.83 7.77035 109.688 7.82061 109.552 7.82061C109.244 7.82061 108.967 7.9878 108.654 7.99861C108.554 8.00205 108.485 8.06944 108.397 8.10146C108.354 8.11689 108.299 8.10389 108.254 8.11332C108.151 8.1352 108.081 8.20895 107.985 8.24386C107.72 8.34029 107.496 8.49835 107.23 8.58403C107.147 8.61078 106.978 8.69921 106.917 8.76401C106.847 8.83948 106.726 8.82628 106.633 8.87278C106.419 8.97958 106.22 9.12926 106.012 9.24065C105.859 9.32173 105.725 9.42839 105.588 9.53336C105.461 9.63064 105.321 9.67106 105.216 9.79838C105.053 9.99833 104.84 10.2141 104.655 10.3996C104.572 10.4823 104.582 10.577 104.524 10.6765C104.433 10.835 104.338 10.9525 104.275 11.1235C104.161 11.4351 104.044 11.7488 103.927 12.0649C103.805 12.3949 103.793 12.7807 103.731 13.125C103.606 13.8283 103.642 14.548 103.642 15.261C103.642 15.6479 103.642 16.0349 103.642 16.4219C103.642 16.8478 103.825 17.3043 104.014 17.6817C104.213 18.0798 104.499 18.4678 104.813 18.7814C104.922 18.8906 105.007 19.0077 105.129 19.1057C105.207 19.1678 105.244 19.269 105.321 19.3352C105.424 19.4228 105.544 19.4848 105.644 19.5764C105.888 19.8007 106.222 19.9543 106.498 20.1381C106.865 20.3828 107.249 20.565 107.665 20.7097C107.9 20.7914 108.123 20.9056 108.357 20.9925C108.654 21.1028 108.983 21.0993 109.295 21.0993C109.755 21.0993 110.215 21.0993 110.675 21.0993C111.17 21.0993 111.747 21.1737 112.222 21.0123C112.681 20.8562 113.231 20.8363 113.626 20.5218C113.761 20.4144 113.916 20.3357 114.061 20.243C114.15 20.1862 114.258 20.1566 114.342 20.0946C114.401 20.0512 114.426 19.9893 114.498 19.9621C114.647 19.9063 114.749 19.7109 114.892 19.6397" stroke="#5100C1" stroke-width="4" stroke-linecap="round"/>
<path d="M131.135 26.9182C131.694 26.9182 132.256 26.887 132.804 26.8713C133.323 26.8565 133.808 26.7775 134.326 26.7775C135.403 26.7775 136.466 26.7306 137.539 26.7306C138.103 26.7306 138.667 26.7306 139.231 26.7306C139.492 26.7306 139.864 26.7928 140.117 26.7254C140.247 26.6906 140.385 26.557 140.518 26.5429C140.597 26.5346 140.836 26.5857 140.883 26.5221C141.035 26.3201 141.456 26.4045 141.655 26.2719C141.723 26.2263 141.914 26.2614 141.999 26.2614C142.085 26.2614 142.308 26.1721 142.395 26.1311C142.508 26.0777 142.612 26.0617 142.723 26.006C142.777 25.9793 142.908 25.7894 142.911 25.7454C142.927 25.453 142.958 25.1787 142.958 24.8801C142.958 23.9096 142.958 22.9392 142.958 21.9688C142.958 21.4195 142.911 20.87 142.911 20.3294C142.911 20.032 142.817 19.8005 142.817 19.4849C142.817 19.1954 142.676 18.9066 142.676 18.604C142.676 18.2634 142.676 17.9229 142.676 17.5823C142.676 17.465 142.676 17.3477 142.676 17.2305C142.676 17.1337 142.676 17.5481 142.676 17.6292C142.676 17.7088 142.68 18.4335 142.76 18.3694C142.968 18.2026 142.958 17.9157 142.958 17.6735C142.958 17.1662 142.958 16.6588 142.958 16.1514C142.958 15.923 143.005 15.7064 143.005 15.4972C143.005 15.3475 143.091 15.2003 143.099 15.049C143.105 14.915 143.086 14.7932 143.146 14.6736" stroke="#5100C1" stroke-width="4" stroke-linecap="round"/>
<path d="M139.368 25.2522C139.574 25.3389 139.837 25.3055 140.054 25.3055C140.226 25.3055 140.34 25.2467 140.486 25.1576C140.592 25.0928 140.672 24.9971 140.766 24.9179C140.843 24.8523 140.942 24.8091 140.998 24.7197C141.024 24.6775 141.116 24.6471 141.158 24.6073C141.244 24.5246 141.27 24.4687 141.338 24.3736C141.394 24.2962 141.338 24.2051 141.368 24.1222C141.395 24.0484 141.467 23.9515 141.525 23.8944" stroke="#5100C1" stroke-linecap="round"/>
<path d="M132.579 28.2075C132.496 28.2075 132.746 28.2075 132.829 28.2075C132.957 28.2075 133.044 28.2575 133.163 28.2873C133.24 28.3065 133.255 28.3406 133.351 28.3406C133.453 28.3406 133.555 28.3406 133.657 28.3406C133.97 28.3406 134.283 28.3406 134.597 28.3406C135.278 28.3406 135.959 28.3406 136.641 28.3406C136.815 28.3406 136.99 28.3406 137.164 28.3406C137.371 28.3406 137.561 28.2873 137.765 28.2873C137.94 28.2873 138.119 28.2607 138.297 28.2607C138.388 28.2607 138.479 28.2607 138.569 28.2607C138.718 28.2607 138.478 28.2607 138.436 28.2607C138.317 28.2607 137.465 28.2139 137.453 28.2888C137.431 28.4165 137.811 28.3672 137.892 28.3672C138.034 28.3672 138.176 28.3672 138.318 28.3672C138.581 28.3672 138.852 28.3406 139.102 28.3406C139.228 28.3406 139.359 28.314 139.491 28.314C139.651 28.314 139.821 28.3302 139.98 28.3125C140.338 28.2727 140.687 28.2607 141.051 28.2607C141.156 28.2607 141.26 28.2607 141.365 28.2607C141.462 28.2607 141.635 28.2956 141.726 28.2548C141.875 28.1877 142.102 28.2113 142.238 28.1276C142.369 28.047 142.539 28.0464 142.681 27.9945C142.84 27.9369 142.99 27.8868 143.137 27.8066C143.2 27.7723 143.261 27.7475 143.325 27.7135C143.366 27.6911 143.528 27.6423 143.548 27.607C143.611 27.4973 143.805 27.4804 143.868 27.3703C143.929 27.263 144.114 27.1816 144.134 27.0626C144.146 26.988 144.269 26.8261 144.314 26.7639C144.461 26.5626 144.506 26.2737 144.506 26.0243" stroke="#5100C1" stroke-linecap="round"/>
<path d="M167.939 7.23907V22.4954" stroke="#5100C1" stroke-width="4" stroke-linecap="round"/>
<path d="M183 7L183 22" stroke="#5100C1" stroke-width="4" stroke-linecap="round"/>
</svg>
