<svg width="185" height="29" viewBox="0 0 185 29" fill="none" xmlns="http://www.w3.org/2000/svg">
<g clip-path="url(#clip0_507_2)">
<path d="M8.5 21C12.0899 21 15 18.0899 15 14.5C15 10.9101 12.0899 8 8.5 8C4.91015 8 2 10.9101 2 14.5C2 18.0899 4.91015 21 8.5 21Z" fill="white" stroke="#FF2262" stroke-width="4"/>
<path d="M53.5 21C57.0899 21 60 18.0899 60 14.5C60 10.9101 57.0899 8 53.5 8C49.9101 8 47 10.9101 47 14.5C47 18.0899 49.9101 21 53.5 21Z" fill="white" stroke="#FF2262" stroke-width="4"/>
<path d="M91.5 21C95.0899 21 98 18.0899 98 14.5C98 10.9101 95.0899 8 91.5 8C87.9101 8 85 10.9101 85 14.5C85 18.0899 87.9101 21 91.5 21Z" fill="white" stroke="#FF2262" stroke-width="4"/>
<path d="M155.5 21C159.09 21 162 18.0899 162 14.5C162 10.9101 159.09 8 155.5 8C151.91 8 149 10.9101 149 14.5C149 18.0899 151.91 21 155.5 21Z" fill="white" stroke="#FF2262" stroke-width="4"/>
<path d="M136.5 21C140.09 21 143 18.0899 143 14.5C143 10.9101 140.09 8 136.5 8C132.91 8 130 10.9101 130 14.5C130 18.0899 132.91 21 136.5 21Z" fill="white" stroke="#FF2262" stroke-width="4"/>
<path d="M15 21V16" stroke="#FF2262" stroke-width="4" stroke-linecap="round"/>
<path d="M15 21V16" stroke="#FF2262" stroke-width="4" stroke-linecap="round"/>
<path d="M71.5 21C75.0899 21 78 18.0899 78 14.5C78 10.9101 75.0899 8 71.5 8C67.9101 8 65 10.9101 65 14.5C65 18.0899 67.9101 21 71.5 21Z" fill="white" stroke="#FF2262" stroke-width="4"/>
<path d="M78 21V16" stroke="#FF2262" stroke-width="4" stroke-linecap="round"/>
<path d="M78 21V16" stroke="#FF2262" stroke-width="4" stroke-linecap="round"/>
<path d="M85 27V16" stroke="#FF2262" stroke-width="4" stroke-linecap="round"/>
<path d="M85 27V16" stroke="#FF2262" stroke-width="4" stroke-linecap="round"/>
<path d="M143 19V8" stroke="#FF2262" stroke-width="4" stroke-linecap="round"/>
<path d="M143 19V8" stroke="#FF2262" stroke-width="4" stroke-linecap="round"/>
<path d="M176 15L182.778 8" stroke="#FF2262" stroke-width="4" stroke-linecap="round"/>
<path d="M176 15L182.778 8" stroke="#FF2262" stroke-width="4" stroke-linecap="round"/>
<path d="M169 8L175.89 14.89" stroke="#FF2262" stroke-width="4" stroke-linecap="round"/>
<path d="M169 8L175.89 14.89" stroke="#FF2262" stroke-width="4" stroke-linecap="round"/>
<path d="M21 21V8" stroke="#FF2262" stroke-width="4" stroke-linecap="round"/>
<path d="M21 21V8" stroke="#FF2262" stroke-width="4" stroke-linecap="round"/>
<path d="M30.8662 8L24.8662 14" stroke="#FF2262" stroke-width="4" stroke-linecap="round"/>
<path d="M30.8662 8L24.8662 14" stroke="#FF2262" stroke-width="4" stroke-linecap="round"/>
<path d="M30.8662 21L24.8662 15" stroke="#FF2262" stroke-width="4" stroke-linecap="round"/>
<path d="M30.8662 21L24.8662 15" stroke="#FF2262" stroke-width="4" stroke-linecap="round"/>
<path d="M48.6523 8.08427C48.6834 8.07984 48.4296 7.95203 48.3965 7.92492C48.3701 7.90333 48.2846 7.90135 48.277 7.8746C48.2492 7.77716 48.2103 7.74587 48.103 7.70685C47.8433 7.61243 47.6499 7.32984 47.4068 7.18685C47.2205 7.07728 46.8849 6.85049 46.7841 6.66894C46.6174 6.36889 46.3908 6.10273 46.3144 5.75894C46.2407 5.42718 46.2368 5.1148 46.2368 4.76296C46.2368 4.5366 46.3613 4.41134 46.4842 4.23247C46.5278 4.16905 46.5931 4.10715 46.6226 4.03747C46.6831 3.89451 46.8473 3.84051 46.9078 3.71457C47.0487 3.4209 47.4128 3.13417 47.6542 2.93666C47.7995 2.8178 48.0606 2.6944 48.2372 2.62004C48.3905 2.55546 48.5328 2.44705 48.6901 2.36843C48.7823 2.32229 48.8576 2.3199 48.9543 2.30972C49.0832 2.29615 49.2083 2.17953 49.3485 2.16085C49.4414 2.14845 49.54 2.16121 49.6336 2.15875C49.7735 2.15507 49.9052 2.08846 50.0404 2.08327C50.2539 2.07505 50.4307 2.00778 50.6527 2.00778C50.8602 2.00778 51.0678 2.00778 51.2754 2.00778C52.256 2.00778 53.2366 2.00778 54.2172 2.00778C55.2945 2.00778 56.3609 1.97004 57.44 1.97004C57.7062 1.97004 57.9264 1.85681 58.1864 1.85681C58.4807 1.85681 58.7749 1.85681 59.0692 1.85681C59.5095 1.85681 59.9498 1.85681 60.3901 1.85681" stroke="#FF2262" stroke-width="3" stroke-linecap="round"/>
<path d="M50.5394 8.27295C50.3753 8.17194 50.1823 8.12013 50.011 8.02973C49.9276 7.98571 49.786 7.88018 49.7175 7.81166C49.6288 7.723 49.9085 7.97762 50.0194 8.03602C50.0668 8.06095 50.1398 8.04452 50.1913 8.0465C50.2125 8.04731 50.3055 8.09484 50.292 8.06327C50.2694 8.01057 50.2407 7.95324 50.1997 7.91231C49.9129 7.62544 49.4232 7.59448 49.1891 7.25391C49.1367 7.17768 49.0228 7.13381 48.9542 7.0652C48.8721 6.9831 48.7943 6.8825 48.69 6.83036C48.5815 6.77607 48.5152 6.676 48.4259 6.59133C48.3892 6.55658 48.3306 6.5506 48.2958 6.51584C48.2506 6.47063 48.283 6.42433 48.2078 6.39423C48.1196 6.35896 48.0107 6.22118 48.0107 6.13004C48.0107 6.06593 47.9951 5.86551 47.9352 5.8281C47.8637 5.7834 47.8975 5.63497 47.8975 5.55552C47.8975 5.43543 47.822 5.35629 47.822 5.25358C47.822 5.04105 47.8095 4.82412 47.822 4.61196C47.8296 4.48315 48.0694 4.41287 48.1323 4.31002C48.1832 4.2268 48.2686 4.06643 48.3504 4.01647C48.4341 3.96531 48.5304 3.86628 48.5852 3.78163C48.6474 3.68551 48.7593 3.73648 48.841 3.69776C48.9769 3.6334 49.1161 3.5881 49.2562 3.52582C49.3162 3.49913 49.4751 3.40688 49.5204 3.40421C49.6312 3.39769 49.7578 3.37545 49.8601 3.32873C49.9711 3.27796 50.0965 3.28831 50.1997 3.24485C50.381 3.16853 50.6451 3.2155 50.8414 3.2155C51.3579 3.2155 51.8744 3.2155 52.3909 3.2155C53.4777 3.2155 54.5645 3.2155 55.6514 3.2155C56.2364 3.2155 56.8214 3.2155 57.4064 3.2155C57.6483 3.2155 58.0357 3.29281 58.2598 3.21131C58.412 3.15594 58.5043 3.14002 58.6708 3.14002C58.8024 3.14002 58.8451 3.06453 58.9727 3.06453C59.1815 3.06453 59.4149 3.09408 59.6206 3.06243C59.7794 3.038 59.6798 3.02262 59.5724 3.03518C59.4081 3.05438 59.2486 3.09682 59.0901 3.14211C58.9941 3.16956 58.9678 3.2155 58.8595 3.2155C58.7993 3.2155 58.7537 3.20538 58.7106 3.25324C58.6083 3.36693 58.3382 3.34479 58.7106 3.32663C58.8845 3.31815 59.0843 3.31368 59.2579 3.28889C59.4723 3.25825 59.7012 3.17776 59.9204 3.17776C60.2887 3.17776 60.8331 3.1603 61.0863 2.83808C61.2205 2.66724 61.4469 2.57608 61.4469 2.32856C61.4469 2.06504 61.4422 1.88982 61.2582 1.70581" stroke="#FF2262" stroke-linecap="round"/>
<path d="M45.0669 4.15909C45.0669 3.94815 45.0663 3.75759 45.1822 3.57409C45.3343 3.33335 45.533 3.11957 45.6896 2.87586C45.8611 2.60911 46.1808 2.34262 46.4382 2.15876C46.6618 1.99903 46.9478 1.76725 47.2182 1.71424C47.3684 1.68479 47.4793 1.56847 47.6334 1.55488C47.6607 1.55246 47.935 1.47551 47.9521 1.45843C48.0837 1.32679 48.3803 1.31582 48.5601 1.23407C48.6734 1.1826 48.8532 1.2152 48.9753 1.2152C49.1507 1.2152 49.2883 1.10197 49.4743 1.10197C49.7288 1.10197 49.9789 1.02649 50.2376 1.02649" stroke="#FF2262" stroke-linecap="round"/>
<path d="M45.2555 4.00818C44.7268 4.31919 45.0461 5.16366 45.2639 5.55561C45.3417 5.69568 45.4893 5.76381 45.5218 5.90997C45.525 5.92458 45.6079 6.06084 45.5176 6.02319C45.4746 6.00528 45.2728 5.93939 45.2597 5.90997C45.1242 5.60524 45.0485 5.18667 45.2555 4.87625" stroke="#FF2262" stroke-linecap="round"/>
<path d="M50.3886 7.55597C50.1896 7.55597 49.8462 7.62962 49.6715 7.50985C49.5531 7.42867 49.4122 7.48443 49.313 7.40501C49.1019 7.23614 48.783 7.14993 48.598 6.91436C48.2841 6.51487 47.8221 6.17575 47.8221 5.60177C47.8221 5.54401 47.8218 5.69435 47.8221 5.70661C47.8247 5.79086 47.926 5.90224 47.9815 5.96242C48.0698 6.05807 48.1653 6.18215 48.2792 6.25177C48.5733 6.43144 48.9355 6.42371 49.2731 6.42371C49.5073 6.42371 49.7414 6.42371 49.9756 6.42371C50.2876 6.42371 50.5624 6.49919 50.8814 6.49919C51.1615 6.49919 51.4522 6.53694 51.7389 6.53694C51.7596 6.53694 51.9555 6.53694 51.8836 6.53694C51.5517 6.53694 51.2169 6.52393 50.8856 6.54323C50.4545 6.56834 49.9997 6.66904 49.596 6.83049C49.5106 6.86464 50.5396 6.90171 50.5396 6.97097C50.5396 7.06986 50.2933 7.11673 50.2293 7.18275C50.1881 7.22519 50.6353 7.15004 50.2041 7.30855C49.7284 7.48345 49.2672 7.59846 48.772 7.6692C48.5438 7.7018 48.4797 7.98272 48.4344 8.18082C48.4167 8.25819 48.2822 8.56086 48.3359 8.60856C48.3553 8.62585 48.5019 8.66528 48.4092 8.64211C48.3325 8.62292 48.269 8.61575 48.1912 8.61276C48.1089 8.60959 48.0483 8.55246 47.9752 8.5205C47.8927 8.48441 47.7927 8.49953 47.7047 8.49953C47.5064 8.49953 47.2816 8.47832 47.105 8.39469C46.9985 8.3442 46.9159 8.34816 46.822 8.25421C46.7481 8.18029 46.6265 8.13359 46.5473 8.07598C46.4547 8.00864 46.3832 7.90231 46.2747 7.85582C46.1494 7.80209 46.1261 7.65596 46.0105 7.58533C45.8374 7.47956 45.8012 7.19714 45.6499 7.06742C45.4515 6.89736 45.3995 6.59203 45.2745 6.3671C45.0693 5.99765 44.9433 5.59141 44.8762 5.15515C44.7978 4.64599 44.8405 4.10777 44.8405 3.59095C44.8405 3.35646 45.0673 3.02766 45.2725 2.91578C45.3658 2.86485 45.6456 2.77168 45.7002 2.68723C45.8035 2.52756 45.9861 2.47947 46.1049 2.34755C46.2711 2.16291 46.6187 1.98224 46.8409 1.86529C47.0414 1.75974 47.0977 1.73708 46.8367 1.87577C46.623 1.98926 46.3402 2.13313 46.1615 2.29304C46.0725 2.37262 45.8865 2.43675 45.7778 2.48384C45.554 2.5808 45.3995 2.82791 45.1802 2.9053C45.0473 2.95222 44.9332 3.11207 44.8216 3.19885C44.7367 3.26491 44.9386 2.96233 44.9789 2.92207C45.2048 2.6962 45.5069 2.53242 45.7463 2.29304C46.0502 1.98918 46.4618 1.81929 46.8325 1.61787C46.9567 1.55036 47.155 1.59043 47.2938 1.55077C47.4497 1.50622 47.6085 1.37822 47.776 1.36625C47.9571 1.35332 48.1158 1.3683 48.2918 1.30964C48.3587 1.28735 48.4233 1.29077 48.4931 1.29077C48.6558 1.29077 48.2803 1.29077 48.2541 1.29077C48.0475 1.29077 47.8322 1.26477 47.6334 1.32851C47.5286 1.36214 47.1783 1.41256 47.1029 1.50045C47.0042 1.61564 46.8442 1.74464 46.7109 1.81916C46.5469 1.91077 46.3981 2.08995 46.2202 2.15465C45.9393 2.25681 45.7091 2.51206 45.4234 2.61594C45.3241 2.65205 45.2259 2.75989 45.1508 2.82981C45.1088 2.86899 44.9595 2.9057 44.9537 2.95143C44.9486 2.99286 44.7962 3.14253 44.7629 3.17578C44.3822 3.55656 44.2361 4.43217 44.5386 4.91612C44.6132 5.03556 44.6645 5.18421 44.7357 5.31241C44.7564 5.34972 44.7909 5.37935 44.8007 5.42354C44.8128 5.47804 44.7669 5.25025 44.7294 5.20338C44.5643 4.99702 44.7734 4.55672 44.6308 4.31224C44.4982 4.08495 44.3667 4.47626 44.352 4.55757C44.3237 4.71287 44.3499 4.89859 44.3499 5.0566C44.3499 5.17502 44.4857 5.34807 44.5386 5.45919C44.6022 5.59285 44.6587 5.71475 44.7273 5.83661C44.8823 6.11221 45.0387 6.35375 45.2389 6.60403C45.3403 6.73075 45.5228 6.76734 45.5597 6.93323C45.5758 7.00541 45.8282 7.17275 45.8973 7.23726C46.1224 7.4474 45.5518 6.7166 45.4633 6.42161C45.411 6.24737 45.3034 6.0379 45.2934 5.85758C45.286 5.72474 45.2298 5.39602 45.1613 5.29564C45.0526 5.13624 44.9448 5.17822 44.7566 5.17822C44.6225 5.17822 44.5008 5.14494 44.5008 5.31031C44.5008 5.4512 44.4926 5.57038 44.5008 5.70661C44.5147 5.936 44.7692 6.23972 44.895 6.4321C45.0507 6.67013 45.2115 6.876 45.3899 7.10307C45.4663 7.20032 45.6087 7.2516 45.6708 7.33791C45.7521 7.45079 45.9023 7.55095 46.0315 7.59791C46.1126 7.6274 46.3963 7.76176 46.4341 7.82017C46.5179 7.94967 46.7213 7.90097 46.8199 8.02775C46.8894 8.11709 46.4279 8.04662 46.3796 8.04662C46.1736 8.04662 46.0926 8.05802 45.9539 7.95017C45.5134 7.60759 45.2015 7.22487 44.8573 6.78226C44.7845 6.68865 44.689 6.50103 44.6602 6.38597C44.6305 6.26703 44.6172 6.2417 44.5428 6.14064C44.4717 6.04412 44.5038 5.89757 44.482 5.78419C44.3857 5.28347 44.5066 4.82747 44.7776 4.40869C44.8961 4.22564 45.0496 4.09881 45.1991 3.93272C45.2534 3.87238 45.4934 3.61282 45.436 3.74821C45.2689 4.14257 45.1219 4.54487 45.067 4.97063C45.0301 5.2566 44.9537 5.51931 44.9537 5.80306C44.9537 6.31906 45.2983 6.98674 45.6625 7.33791C45.9684 7.63296 46.2801 8.04054 46.6815 8.18921C46.7682 8.22132 46.7813 8.31804 46.8618 8.34646C46.9666 8.38346 47.0515 8.48981 47.1428 8.55824C47.3001 8.67626 47.5202 8.77382 47.5202 8.98179C47.5202 9.11113 47.2009 8.81246 47.1092 8.79937C47.0128 8.78559 46.8391 8.57739 46.757 8.50792C46.494 8.28537 46.2277 8.12958 45.9854 7.88727C45.7158 7.61769 45.4414 7.39816 45.3291 7.0192C45.2062 6.60457 45.1169 6.23613 45.2557 5.81983" stroke="#FF2262" stroke-linecap="round"/>
<path d="M115.71 10.3837C115.582 10.1392 115.423 10.0891 115.24 9.91303C115.022 9.70313 114.852 9.44079 114.658 9.20894C114.46 8.97041 114.19 8.84117 113.915 8.71055C113.624 8.57257 113.345 8.41724 113.058 8.26555C112.782 8.11929 112.481 8.03827 112.19 7.92933C111.989 7.85411 111.773 7.84043 111.569 7.76518C111.448 7.72053 111.309 7.71375 111.181 7.71375C110.934 7.71375 110.687 7.71375 110.44 7.71375C110.277 7.71375 110.121 7.70723 109.963 7.74144C109.83 7.77029 109.688 7.82055 109.552 7.82055C109.244 7.82055 108.967 7.98774 108.654 7.99855C108.554 8.00199 108.485 8.06938 108.397 8.1014C108.354 8.11683 108.299 8.10383 108.254 8.11326C108.151 8.13514 108.081 8.20889 107.985 8.2438C107.72 8.34023 107.496 8.49829 107.23 8.58397C107.147 8.61072 106.978 8.69915 106.917 8.76395C106.847 8.83942 106.726 8.82622 106.633 8.87272C106.419 8.97952 106.22 9.1292 106.012 9.24059C105.859 9.32167 105.725 9.42833 105.588 9.5333C105.461 9.63058 105.321 9.671 105.216 9.79832C105.053 9.99827 104.84 10.214 104.655 10.3995C104.572 10.4822 104.582 10.5769 104.524 10.6764C104.433 10.8349 104.338 10.9524 104.275 11.1234C104.161 11.435 104.044 11.7487 103.927 12.0648C103.805 12.3948 103.793 12.7806 103.731 13.1249C103.606 13.8282 103.642 14.5479 103.642 15.2609C103.642 15.6478 103.642 16.0348 103.642 16.4218C103.642 16.8477 103.825 17.3042 104.014 17.6816C104.213 18.0797 104.499 18.4677 104.813 18.7813C104.922 18.8905 105.007 19.0076 105.129 19.1056C105.207 19.1677 105.244 19.2689 105.321 19.3351C105.424 19.4227 105.544 19.4847 105.644 19.5763C105.888 19.8006 106.222 19.9542 106.498 20.138C106.865 20.3827 107.249 20.5649 107.665 20.7096C107.9 20.7913 108.123 20.9055 108.357 20.9924C108.654 21.1027 108.983 21.0992 109.295 21.0992C109.755 21.0992 110.215 21.0992 110.675 21.0992C111.17 21.0992 111.747 21.1736 112.222 21.0122C112.681 20.8561 113.231 20.8362 113.626 20.5217C113.761 20.4143 113.916 20.3356 114.061 20.2429C114.15 20.1861 114.258 20.1565 114.342 20.0945C114.401 20.0511 114.426 19.9892 114.498 19.962C114.647 19.9062 114.749 19.7108 114.892 19.6396" stroke="#FF2262" stroke-width="4" stroke-linecap="round"/>
<path d="M131.135 26.9182C131.694 26.9182 132.256 26.887 132.804 26.8713C133.323 26.8565 133.808 26.7775 134.326 26.7775C135.403 26.7775 136.466 26.7306 137.539 26.7306C138.103 26.7306 138.667 26.7306 139.231 26.7306C139.492 26.7306 139.864 26.7928 140.117 26.7254C140.247 26.6906 140.385 26.557 140.518 26.5429C140.597 26.5346 140.836 26.5857 140.883 26.5221C141.035 26.3201 141.456 26.4045 141.655 26.2719C141.723 26.2263 141.914 26.2614 141.999 26.2614C142.085 26.2614 142.308 26.1721 142.395 26.1311C142.508 26.0777 142.612 26.0617 142.723 26.006C142.777 25.9793 142.908 25.7894 142.911 25.7454C142.927 25.453 142.958 25.1787 142.958 24.8801C142.958 23.9096 142.958 22.9392 142.958 21.9688C142.958 21.4195 142.911 20.87 142.911 20.3294C142.911 20.032 142.817 19.8005 142.817 19.4849C142.817 19.1954 142.676 18.9066 142.676 18.604C142.676 18.2634 142.676 17.9229 142.676 17.5823C142.676 17.465 142.676 17.3477 142.676 17.2305C142.676 17.1337 142.676 17.5481 142.676 17.6292C142.676 17.7088 142.68 18.4335 142.76 18.3694C142.968 18.2026 142.958 17.9157 142.958 17.6735C142.958 17.1662 142.958 16.6588 142.958 16.1514C142.958 15.923 143.005 15.7064 143.005 15.4972C143.005 15.3475 143.091 15.2003 143.099 15.049C143.105 14.915 143.086 14.7932 143.146 14.6736" stroke="#FF2262" stroke-width="4" stroke-linecap="round"/>
<path d="M139.368 25.2522C139.574 25.3389 139.837 25.3055 140.054 25.3055C140.226 25.3055 140.34 25.2467 140.486 25.1576C140.592 25.0928 140.672 24.9971 140.766 24.9179C140.843 24.8523 140.942 24.8091 140.998 24.7197C141.024 24.6775 141.116 24.6471 141.158 24.6073C141.244 24.5246 141.27 24.4687 141.338 24.3736C141.394 24.2962 141.338 24.2051 141.368 24.1222C141.395 24.0484 141.467 23.9515 141.525 23.8944" stroke="#FF2262" stroke-linecap="round"/>
<path d="M132.579 28.2075C132.496 28.2075 132.746 28.2075 132.829 28.2075C132.957 28.2075 133.044 28.2575 133.163 28.2873C133.24 28.3065 133.255 28.3406 133.351 28.3406C133.453 28.3406 133.555 28.3406 133.657 28.3406C133.97 28.3406 134.283 28.3406 134.597 28.3406C135.278 28.3406 135.959 28.3406 136.641 28.3406C136.815 28.3406 136.99 28.3406 137.164 28.3406C137.371 28.3406 137.561 28.2873 137.765 28.2873C137.94 28.2873 138.119 28.2607 138.297 28.2607C138.388 28.2607 138.479 28.2607 138.569 28.2607C138.718 28.2607 138.478 28.2607 138.436 28.2607C138.317 28.2607 137.465 28.2139 137.453 28.2888C137.431 28.4165 137.811 28.3672 137.892 28.3672C138.034 28.3672 138.176 28.3672 138.318 28.3672C138.581 28.3672 138.852 28.3406 139.102 28.3406C139.228 28.3406 139.359 28.314 139.491 28.314C139.651 28.314 139.821 28.3302 139.98 28.3125C140.338 28.2727 140.687 28.2607 141.051 28.2607C141.156 28.2607 141.26 28.2607 141.365 28.2607C141.462 28.2607 141.635 28.2956 141.726 28.2548C141.875 28.1877 142.102 28.2113 142.238 28.1276C142.369 28.047 142.539 28.0464 142.681 27.9945C142.84 27.9369 142.99 27.8868 143.137 27.8066C143.2 27.7723 143.261 27.7475 143.325 27.7135C143.366 27.6911 143.528 27.6423 143.548 27.607C143.611 27.4973 143.805 27.4804 143.868 27.3703C143.929 27.263 144.114 27.1816 144.134 27.0626C144.146 26.988 144.269 26.8261 144.314 26.7639C144.461 26.5626 144.506 26.2737 144.506 26.0243" stroke="#FF2262" stroke-linecap="round"/>
<path d="M167.939 7.23901V22.4953" stroke="#FF2262" stroke-width="4" stroke-linecap="round"/>
<path d="M183 7V22" stroke="#FF2262" stroke-width="4" stroke-linecap="round"/>
</g>
<defs>
<clipPath id="clip0_507_2">
<rect width="185" height="29" fill="white"/>
</clipPath>
</defs>
</svg>
