<svg width="155" height="110" viewBox="0 0 155 110" fill="none" xmlns="http://www.w3.org/2000/svg">
<path d="M0 22C0 9.84973 9.84974 0 22 0H154.506V110H22C9.84971 110 0 100.15 0 88V22Z" fill="#E4E9F4"/>
<rect x="43.082" y="34.3413" width="70.9672" height="47.619" rx="10" fill="#E4E9F4"/>
<rect x="82.418" y="28.627" width="24.7371" height="21.9048" rx="10.9524" fill="#E4E9F4"/>
<path d="M89.4132 58.9643C89.4132 65.1229 84.4784 70.0715 78.4449 70.0715C72.4114 70.0715 67.4766 65.1229 67.4766 58.9643C67.4766 52.8058 72.4114 47.8572 78.4449 47.8572C84.4784 47.8572 89.4132 52.8058 89.4132 58.9643Z" fill="#E4E9F4" stroke="white" stroke-width="5"/>
<path d="M50.6813 34.8926C42.7606 34.8926 43.0839 43.0521 43.0839 43.0521V73.9826C43.0839 82.5216 50.6813 81.9524 50.6813 81.9524H106.288C106.288 81.9524 114.047 81.9524 114.047 73.9826V43.0521C114.047 43.0521 114.371 34.8926 106.288 34.8926C105.642 29.5793 99.4991 29.5794 99.4991 29.5794L89.3153 29.5793C83.8192 29.5793 82.8493 34.8926 82.8493 34.8926H50.6813Z" stroke="white" stroke-width="5"/>
<ellipse cx="52.6112" cy="33.8651" rx="0.60829" ry="0.47619" fill="white"/>
<ellipse cx="53.625" cy="33.8652" rx="1.62211" ry="1.90476" fill="white"/>
</svg>
