<svg width="414" height="402" viewBox="0 0 414 402" fill="none" xmlns="http://www.w3.org/2000/svg">
<rect width="413.893" height="402" fill="white"/>
<rect x="76.1183" y="126.275" width="261.746" height="147.728" fill="white"/>
<rect x="221.863" y="109.42" width="90.2231" height="67.4194" fill="white"/>
<circle cx="206.947" cy="199.811" r="35.6272" fill="white" stroke="#E4E9F4" stroke-width="12"/>
<path d="M104.663 126.666C75.5238 126.666 76.7131 152.237 76.7131 152.237V249.169C76.7131 275.929 104.663 274.145 104.663 274.145H309.231C309.231 274.145 337.775 274.145 337.775 249.169V152.237C337.775 152.237 338.964 126.666 309.231 126.666C306.852 110.015 284.254 110.015 284.254 110.015L246.79 110.015C226.571 110.015 223.003 126.666 223.003 126.666H104.663Z" stroke="#E4E9F4" stroke-width="12"/>
<circle cx="115.367" cy="121.314" r="8.32544" fill="#E4E9F4"/>
</svg>
