<svg width="381" height="231" viewBox="0 0 381 231" fill="none" xmlns="http://www.w3.org/2000/svg">
<path d="M0 22C0 9.84973 9.84974 0 22 0H359C371.15 0 381 9.84974 381 22V231H0V22Z" fill="#E4E9F4"/>
<rect x="101" y="70" width="175" height="100" rx="10" fill="#E4E9F4"/>
<rect x="198" y="58" width="61" height="46" rx="22" fill="#E4E9F4"/>
<path d="M212.5 120C212.5 134.215 201.627 145.5 188.5 145.5C175.373 145.5 164.5 134.215 164.5 120C164.5 105.785 175.373 94.5 188.5 94.5C201.627 94.5 212.5 105.785 212.5 120Z" fill="#E4E9F4" stroke="white" stroke-width="5"/>
<path d="M119.739 71.1578C100.207 71.1578 101.005 88.2929 101.005 88.2929V153.247C101.005 171.179 119.739 169.983 119.739 169.983H256.862C256.862 169.983 275.996 169.983 275.996 153.247V88.2929C275.996 88.2929 276.793 71.1578 256.862 71.1578C255.268 59.9999 240.12 60.0001 240.12 60.0001L215.008 60C201.455 60 199.063 71.1578 199.063 71.1578H119.739Z" stroke="white" stroke-width="5"/>
<ellipse cx="124.5" cy="69" rx="1.5" ry="1" fill="white"/>
<circle cx="127" cy="69" r="4" fill="white"/>
</svg>
