<svg width="377" height="31" viewBox="0 0 377 31" fill="none" xmlns="http://www.w3.org/2000/svg">
<g clip-path="url(#clip0_943_170)">
<path d="M8.65666 21C11.9582 21 14.6346 18.0899 14.6346 14.5C14.6346 10.9101 11.9582 8 8.65666 8C5.35513 8 2.67871 10.9101 2.67871 14.5C2.67871 18.0899 5.35513 21 8.65666 21Z" fill="white" stroke="#5100C1" stroke-width="4"/>
<path d="M50.0425 21C53.3441 21 56.0205 18.0899 56.0205 14.5C56.0205 10.9101 53.3441 8 50.0425 8C46.741 8 44.0646 10.9101 44.0646 14.5C44.0646 18.0899 46.741 21 50.0425 21Z" fill="white" stroke="#5100C1" stroke-width="4"/>
<path d="M84.9905 21C88.2921 21 90.9685 18.0899 90.9685 14.5C90.9685 10.9101 88.2921 8 84.9905 8C81.689 8 79.0126 10.9101 79.0126 14.5C79.0126 18.0899 81.689 21 84.9905 21Z" fill="white" stroke="#5100C1" stroke-width="4"/>
<path d="M143.85 21C147.152 21 149.828 18.0899 149.828 14.5C149.828 10.9101 147.152 8 143.85 8C140.549 8 137.872 10.9101 137.872 14.5C137.872 18.0899 140.549 21 143.85 21Z" fill="white" stroke="#5100C1" stroke-width="4"/>
<path d="M126.376 21C129.678 21 132.354 18.0899 132.354 14.5C132.354 10.9101 129.678 8 126.376 8C123.075 8 120.398 10.9101 120.398 14.5C120.398 18.0899 123.075 21 126.376 21Z" fill="white" stroke="#5100C1" stroke-width="4"/>
<path d="M14.6346 21V16" stroke="#5100C1" stroke-width="4" stroke-linecap="round"/>
<path d="M14.6346 21V16" stroke="#5100C1" stroke-width="4" stroke-linecap="round"/>
<path d="M66.5968 21C69.8984 21 72.5748 18.0899 72.5748 14.5C72.5748 10.9101 69.8984 8 66.5968 8C63.2953 8 60.6189 10.9101 60.6189 14.5C60.6189 18.0899 63.2953 21 66.5968 21Z" fill="white" stroke="#5100C1" stroke-width="4"/>
<path d="M72.5748 21V16" stroke="#5100C1" stroke-width="4" stroke-linecap="round"/>
<path d="M72.5748 21V16" stroke="#5100C1" stroke-width="4" stroke-linecap="round"/>
<path d="M79.0126 27V16" stroke="#5100C1" stroke-width="4" stroke-linecap="round"/>
<path d="M132.354 19V8" stroke="#5100C1" stroke-width="4" stroke-linecap="round"/>
<path d="M132.354 19V8" stroke="#5100C1" stroke-width="4" stroke-linecap="round"/>
<path d="M162.704 15L168.938 8" stroke="#5100C1" stroke-width="4" stroke-linecap="round"/>
<path d="M162.704 15L168.938 8" stroke="#5100C1" stroke-width="4" stroke-linecap="round"/>
<path d="M156.266 8L162.603 14.89" stroke="#5100C1" stroke-width="4" stroke-linecap="round"/>
<path d="M156.266 8L162.603 14.89" stroke="#5100C1" stroke-width="4" stroke-linecap="round"/>
<path d="M20.1527 21V8" stroke="#5100C1" stroke-width="4" stroke-linecap="round"/>
<path d="M20.1527 21V8" stroke="#5100C1" stroke-width="4" stroke-linecap="round"/>
<path d="M29.2264 8L23.7083 14" stroke="#5100C1" stroke-width="4" stroke-linecap="round"/>
<path d="M29.2264 8L23.7083 14" stroke="#5100C1" stroke-width="4" stroke-linecap="round"/>
<path d="M29.2264 21L23.7083 15" stroke="#5100C1" stroke-width="4" stroke-linecap="round"/>
<path d="M29.2264 21L23.7083 15" stroke="#5100C1" stroke-width="4" stroke-linecap="round"/>
<path d="M45.5842 8.08439C45.6128 8.07996 45.3794 7.95215 45.3489 7.92504C45.3246 7.90345 45.246 7.90147 45.239 7.87472C45.2134 7.77728 45.1777 7.74599 45.079 7.70697C44.8401 7.61255 44.6623 7.32996 44.4387 7.18697C44.2674 7.0774 43.9587 6.85061 43.866 6.66906C43.7127 6.36901 43.5043 6.10285 43.434 5.75906C43.3663 5.4273 43.3627 5.11492 43.3627 4.76308C43.3627 4.53672 43.4772 4.41146 43.5902 4.23259C43.6303 4.16917 43.6904 4.10727 43.7175 4.03759C43.7731 3.89463 43.9241 3.84063 43.9798 3.71469C44.1094 3.42102 44.4442 3.13429 44.6662 2.93678C44.7999 2.81792 45.04 2.69452 45.2024 2.62016C45.3434 2.55558 45.4743 2.44717 45.6189 2.36855C45.7037 2.32241 45.773 2.32002 45.8619 2.30984C45.9805 2.29627 46.0955 2.17965 46.2245 2.16097C46.3099 2.14857 46.4006 2.16133 46.4867 2.15887C46.6153 2.15519 46.7364 2.08858 46.8608 2.08339C47.0571 2.07517 47.2197 2.0079 47.4239 2.0079C47.6147 2.0079 47.8057 2.0079 47.9966 2.0079C48.8984 2.0079 49.8003 2.0079 50.7021 2.0079C51.6929 2.0079 52.6737 1.97016 53.6661 1.97016C53.9109 1.97016 54.1134 1.85693 54.3525 1.85693C54.6232 1.85693 54.8938 1.85693 55.1644 1.85693C55.5694 1.85693 55.9743 1.85693 56.3792 1.85693" stroke="#5100C1" stroke-width="3" stroke-linecap="round"/>
<path d="M47.3198 8.27319C47.1689 8.17218 46.9914 8.12037 46.8339 8.02997C46.7571 7.98595 46.6269 7.88042 46.5639 7.8119C46.4823 7.72324 46.7396 7.97786 46.8416 8.03626C46.8852 8.06119 46.9523 8.04476 46.9997 8.04674C47.0192 8.04755 47.1047 8.09508 47.0923 8.06351C47.0715 8.01081 47.0451 7.95348 47.0074 7.91255C46.7436 7.62568 46.2933 7.59472 46.078 7.25415C46.0298 7.17792 45.925 7.13405 45.8619 7.06544C45.7864 6.98334 45.7149 6.88274 45.6189 6.8306C45.5192 6.77631 45.4582 6.67624 45.3761 6.59157C45.3423 6.55682 45.2884 6.55084 45.2564 6.51608C45.2148 6.47087 45.2446 6.42457 45.1755 6.39447C45.0944 6.3592 44.9942 6.22142 44.9942 6.13028C44.9942 6.06617 44.9799 5.86575 44.9248 5.82834C44.859 5.78364 44.8901 5.63521 44.8901 5.55576C44.8901 5.43567 44.8207 5.35653 44.8207 5.25382C44.8207 5.04129 44.8092 4.82436 44.8207 4.6122C44.8277 4.48339 45.0482 4.41311 45.106 4.31026C45.1529 4.22704 45.2314 4.06667 45.3066 4.01671C45.3836 3.96555 45.4722 3.86652 45.5226 3.78187C45.5798 3.68575 45.6827 3.73672 45.7578 3.698C45.8828 3.63364 46.0108 3.58834 46.1397 3.52606C46.1949 3.49937 46.341 3.40712 46.3827 3.40445C46.4846 3.39793 46.601 3.37569 46.6951 3.32897C46.7972 3.2782 46.9125 3.28855 47.0074 3.24509C47.1741 3.16877 47.417 3.21574 47.5976 3.21574C48.0726 3.21574 48.5476 3.21574 49.0226 3.21574C50.0221 3.21574 51.0216 3.21574 52.0212 3.21574C52.5593 3.21574 53.0973 3.21574 53.6353 3.21574C53.8578 3.21574 54.214 3.29305 54.4201 3.21155C54.5601 3.15618 54.645 3.14026 54.7981 3.14026C54.9192 3.14026 54.9584 3.06477 55.0758 3.06477C55.2678 3.06477 55.4825 3.09432 55.6717 3.06267C55.8177 3.03824 55.7261 3.02286 55.6273 3.03542C55.4762 3.05462 55.3295 3.09706 55.1838 3.14235C55.0955 3.1698 55.0713 3.21574 54.9717 3.21574C54.9163 3.21574 54.8744 3.20562 54.8347 3.25348C54.7407 3.36717 54.4923 3.34503 54.8347 3.32687C54.9947 3.31839 55.1784 3.31392 55.3381 3.28913C55.5353 3.25849 55.7458 3.178 55.9474 3.178C56.2861 3.178 56.7868 3.16054 57.0196 2.83832C57.1431 2.66748 57.3513 2.57632 57.3513 2.3288C57.3513 2.06528 57.347 1.89006 57.1777 1.70605" stroke="#5100C1" stroke-linecap="round"/>
<path d="M42.2867 4.15897C42.2867 3.94803 42.2862 3.75747 42.3928 3.57397C42.5327 3.33323 42.7154 3.11945 42.8594 2.87574C43.0172 2.60899 43.3112 2.3425 43.5479 2.15864C43.7536 1.99891 44.0166 1.76713 44.2653 1.71412C44.4034 1.68467 44.5054 1.56835 44.6471 1.55476C44.6722 1.55234 44.9245 1.47539 44.9402 1.45831C45.0612 1.32667 45.334 1.3157 45.4994 1.23395C45.6036 1.18248 45.7689 1.21508 45.8812 1.21508C46.0426 1.21508 46.1691 1.10185 46.3402 1.10185C46.5742 1.10185 46.8042 1.02637 47.0422 1.02637" stroke="#5100C1" stroke-linecap="round"/>
<path d="M42.4602 4.0083C41.974 4.31931 42.2676 5.16378 42.4679 5.55573C42.5395 5.6958 42.6752 5.76393 42.7051 5.91009C42.7081 5.9247 42.7843 6.06096 42.7013 6.02331C42.6617 6.0054 42.4761 5.93951 42.4641 5.91009C42.3395 5.60536 42.2698 5.18679 42.4602 4.87637" stroke="#5100C1" stroke-linecap="round"/>
<path d="M47.1809 7.55609C46.9979 7.55609 46.6821 7.62974 46.5214 7.50997C46.4125 7.42879 46.2829 7.48455 46.1917 7.40513C45.9976 7.23626 45.7043 7.15005 45.5341 6.91448C45.2455 6.51499 44.8206 6.17587 44.8206 5.60189C44.8206 5.54413 44.8203 5.69447 44.8206 5.70673C44.8229 5.79098 44.9161 5.90236 44.9672 5.96254C45.0484 6.05819 45.1362 6.18227 45.2409 6.25189C45.5114 6.43156 45.8445 6.42383 46.155 6.42383C46.3704 6.42383 46.5857 6.42383 46.8011 6.42383C47.088 6.42383 47.3408 6.49931 47.6342 6.49931C47.8918 6.49931 48.1591 6.53706 48.4228 6.53706C48.4418 6.53706 48.622 6.53706 48.5559 6.53706C48.2506 6.53706 47.9427 6.52405 47.638 6.54335C47.2415 6.56846 46.8233 6.66916 46.452 6.83061C46.3734 6.86476 47.3198 6.90183 47.3198 6.97109C47.3198 7.06998 47.0933 7.11685 47.0344 7.18287C46.9965 7.22531 47.4078 7.15016 47.0112 7.30867C46.5738 7.48357 46.1496 7.59858 45.6942 7.66932C45.4843 7.70192 45.4253 7.98284 45.3837 8.18094C45.3674 8.25831 45.2437 8.56098 45.2931 8.60868C45.3109 8.62597 45.4458 8.6654 45.3605 8.64223C45.29 8.62304 45.2316 8.61587 45.16 8.61288C45.0843 8.60971 45.0286 8.55258 44.9614 8.52062C44.8855 8.48453 44.7935 8.49965 44.7126 8.49965C44.5302 8.49965 44.3235 8.47844 44.1611 8.39481C44.0631 8.34432 43.9871 8.34828 43.9008 8.25433C43.8328 8.18041 43.721 8.13371 43.6481 8.0761C43.563 8.00876 43.4972 7.90243 43.3974 7.85594C43.2822 7.80221 43.2608 7.65608 43.1545 7.58545C42.9953 7.47968 42.962 7.19726 42.8228 7.06754C42.6404 6.89748 42.5925 6.59215 42.4776 6.36722C42.2888 5.99777 42.173 5.59153 42.1113 5.15527C42.0392 4.64611 42.0784 4.10789 42.0784 3.59107C42.0784 3.35658 42.287 3.02778 42.4757 2.9159C42.5615 2.86497 42.8189 2.7718 42.8691 2.68735C42.9641 2.52768 43.132 2.47959 43.2413 2.34767C43.3941 2.16303 43.7138 1.98236 43.9182 1.86541C44.1026 1.75986 44.1543 1.7372 43.9143 1.87589C43.7178 1.98938 43.4577 2.13325 43.2933 2.29316C43.2115 2.37274 43.0404 2.43687 42.9404 2.48396C42.7346 2.58092 42.5925 2.82803 42.3908 2.90542C42.2686 2.95234 42.1637 3.11219 42.061 3.19897C41.983 3.26503 42.1686 2.96245 42.2057 2.92219C42.4135 2.69632 42.6913 2.53254 42.9115 2.29316C43.191 1.9893 43.5695 1.81941 43.9104 1.61799C44.0247 1.55048 44.207 1.59055 44.3347 1.55089C44.4781 1.50634 44.6241 1.37834 44.7782 1.36637C44.9447 1.35344 45.0907 1.36842 45.2525 1.30976C45.3141 1.28747 45.3735 1.29089 45.4377 1.29089C45.5873 1.29089 45.242 1.29089 45.2179 1.29089C45.0279 1.29089 44.8298 1.26489 44.647 1.32863C44.5506 1.36226 44.2285 1.41268 44.1591 1.50057C44.0683 1.61576 43.9212 1.74476 43.7986 1.81928C43.6478 1.91089 43.5109 2.09007 43.3473 2.15477C43.089 2.25693 42.8773 2.51218 42.6145 2.61606C42.5232 2.65217 42.4329 2.76001 42.3638 2.82993C42.3252 2.86911 42.1879 2.90582 42.1825 2.95155C42.1778 2.99298 42.0377 3.14265 42.0071 3.1759C41.6569 3.55668 41.5226 4.43229 41.8008 4.91624C41.8694 5.03568 41.9166 5.18433 41.982 5.31253C42.0011 5.34984 42.0328 5.37947 42.0418 5.42366C42.0529 5.47816 42.0107 5.25037 41.9762 5.2035C41.8244 4.99714 42.0167 4.55684 41.8856 4.31236C41.7636 4.08507 41.6427 4.47638 41.6292 4.55769C41.6031 4.71299 41.6272 4.89871 41.6272 5.05672C41.6272 5.17514 41.7521 5.34819 41.8008 5.45931C41.8593 5.59297 41.9112 5.71487 41.9743 5.83673C42.1169 6.11233 42.2607 6.35387 42.4448 6.60415C42.5381 6.73087 42.7059 6.76746 42.7399 6.93335C42.7547 7.00553 42.9868 7.17287 43.0503 7.23738C43.2574 7.44752 42.7326 6.71672 42.6512 6.42173C42.6031 6.24749 42.5041 6.03802 42.4949 5.8577C42.4881 5.72486 42.4365 5.39614 42.3735 5.29576C42.2735 5.13636 42.1743 5.17834 42.0013 5.17834C41.8779 5.17834 41.766 5.14506 41.766 5.31043C41.766 5.45132 41.7585 5.5705 41.766 5.70673C41.7788 5.93612 42.0129 6.23984 42.1285 6.43222C42.2717 6.67025 42.4196 6.87612 42.5837 7.10319C42.654 7.20044 42.7849 7.25172 42.842 7.33803C42.9168 7.45091 43.0549 7.55107 43.1738 7.59803C43.2484 7.62752 43.5093 7.76188 43.544 7.82029C43.6211 7.94979 43.8082 7.90109 43.8988 8.02787C43.9628 8.11721 43.5383 8.04674 43.4939 8.04674C43.3045 8.04674 43.23 8.05814 43.1024 7.95029C42.6973 7.60771 42.4104 7.22499 42.0939 6.78238C42.0269 6.68877 41.9391 6.50115 41.9126 6.38609C41.8853 6.26715 41.8731 6.24182 41.8046 6.14076C41.7392 6.04424 41.7688 5.89769 41.7487 5.78431C41.6601 5.28359 41.7713 4.82759 42.0206 4.40881C42.1296 4.22576 42.2707 4.09893 42.4082 3.93284C42.4582 3.8725 42.6789 3.61294 42.6261 3.74833C42.4724 4.14269 42.3372 4.54499 42.2867 4.97075C42.2528 5.25672 42.1825 5.51943 42.1825 5.80318C42.1825 6.31918 42.4995 6.98686 42.8344 7.33803C43.1157 7.63308 43.4024 8.04066 43.7716 8.18933C43.8513 8.22144 43.8633 8.31816 43.9374 8.34658C44.0338 8.38358 44.1118 8.48993 44.1958 8.55836C44.3405 8.67638 44.5429 8.77394 44.5429 8.98191C44.5429 9.11125 44.2492 8.81258 44.1649 8.79949C44.0763 8.78571 43.9165 8.57751 43.841 8.50804C43.5991 8.28549 43.3542 8.1297 43.1314 7.88739C42.8834 7.61781 42.6311 7.39828 42.5278 7.01932C42.4148 6.60469 42.3326 6.23625 42.4603 5.81995" stroke="#5100C1" stroke-linecap="round"/>
<path d="M107.256 10.3839C107.138 10.1394 106.992 10.0893 106.824 9.91316C106.623 9.70326 106.467 9.44092 106.289 9.20907C106.107 8.97054 105.858 8.8413 105.605 8.71068C105.338 8.5727 105.081 8.41737 104.817 8.26568C104.563 8.11942 104.286 8.0384 104.019 7.92946C103.834 7.85424 103.635 7.84056 103.448 7.76531C103.336 7.72066 103.209 7.71388 103.091 7.71388C102.864 7.71388 102.637 7.71388 102.409 7.71388C102.259 7.71388 102.116 7.70736 101.971 7.74157C101.848 7.77042 101.718 7.82068 101.593 7.82068C101.309 7.82068 101.055 7.98787 100.767 7.99868C100.675 8.00212 100.611 8.06951 100.53 8.10153C100.491 8.11696 100.44 8.10396 100.399 8.11339C100.304 8.13527 100.24 8.20902 100.152 8.24393C99.9079 8.34036 99.7018 8.49842 99.4572 8.5841C99.3809 8.61085 99.2254 8.69928 99.1693 8.76408C99.105 8.83955 98.9937 8.82635 98.9082 8.87285C98.7113 8.97965 98.5283 9.12933 98.337 9.24072C98.1963 9.3218 98.0731 9.42846 97.9471 9.53343C97.8303 9.63071 97.7015 9.67113 97.605 9.79845C97.4551 9.9984 97.2592 10.2142 97.089 10.3997C97.0127 10.4824 97.0219 10.5771 96.9685 10.6766C96.8848 10.8351 96.7975 10.9526 96.7395 11.1236C96.6347 11.4352 96.5271 11.7489 96.4195 12.065C96.3073 12.395 96.2963 12.7808 96.2392 13.1251C96.1243 13.8284 96.1574 14.5481 96.1574 15.2611C96.1574 15.648 96.1574 16.035 96.1574 16.422C96.1574 16.8479 96.3257 17.3044 96.4995 17.6818C96.6825 18.0799 96.9456 18.4679 97.2343 18.7815C97.3346 18.8907 97.4127 19.0078 97.5249 19.1058C97.5967 19.1679 97.6307 19.2691 97.7015 19.3353C97.7963 19.4229 97.9066 19.4849 97.9986 19.5765C98.223 19.8008 98.5302 19.9544 98.784 20.1382C99.1215 20.3829 99.4747 20.5651 99.8573 20.7098C100.073 20.7915 100.278 20.9057 100.494 20.9926C100.767 21.1029 101.069 21.0994 101.356 21.0994C101.779 21.0994 102.202 21.0994 102.626 21.0994C103.081 21.0994 103.611 21.1738 104.048 21.0124C104.47 20.8563 104.976 20.8364 105.34 20.5219C105.464 20.4145 105.606 20.3358 105.74 20.2431C105.821 20.1863 105.921 20.1567 105.998 20.0947C106.052 20.0513 106.075 19.9894 106.141 19.9622C106.279 19.9064 106.372 19.711 106.504 19.6398" stroke="#5100C1" stroke-width="4" stroke-linecap="round"/>
<path d="M121.442 26.9184C121.956 26.9184 122.473 26.8872 122.977 26.8715C123.455 26.8567 123.901 26.7777 124.377 26.7777C125.367 26.7777 126.345 26.7308 127.332 26.7308C127.851 26.7308 128.369 26.7308 128.888 26.7308C129.128 26.7308 129.47 26.793 129.703 26.7256C129.822 26.6908 129.949 26.5572 130.072 26.5431C130.144 26.5348 130.364 26.5859 130.407 26.5223C130.547 26.3203 130.934 26.4047 131.117 26.2721C131.18 26.2265 131.356 26.2616 131.434 26.2616C131.513 26.2616 131.718 26.1723 131.798 26.1313C131.902 26.0779 131.997 26.0619 132.1 26.0062C132.149 25.9795 132.27 25.7896 132.272 25.7456C132.287 25.4532 132.316 25.1789 132.316 24.8803C132.316 23.9098 132.316 22.9394 132.316 21.969C132.316 21.4197 132.272 20.8702 132.272 20.3296C132.272 20.0322 132.186 19.8007 132.186 19.4851C132.186 19.1956 132.056 18.9068 132.056 18.6042C132.056 18.2636 132.056 17.9231 132.056 17.5825C132.056 17.4652 132.056 17.3479 132.056 17.2307C132.056 17.1339 132.056 17.5483 132.056 17.6294C132.056 17.709 132.06 18.4337 132.134 18.3696C132.325 18.2028 132.316 17.9159 132.316 17.6737C132.316 17.1664 132.316 16.659 132.316 16.1516C132.316 15.9232 132.359 15.7066 132.359 15.4974C132.359 15.3477 132.438 15.2005 132.445 15.0492C132.451 14.9152 132.433 14.7934 132.489 14.6738" stroke="#5100C1" stroke-width="4" stroke-linecap="round"/>
<path d="M129.014 25.2523C129.203 25.339 129.445 25.3056 129.645 25.3056C129.803 25.3056 129.908 25.2468 130.042 25.1577C130.14 25.0929 130.213 24.9972 130.3 24.918C130.371 24.8524 130.462 24.8092 130.513 24.7198C130.537 24.6776 130.622 24.6472 130.66 24.6074C130.739 24.5247 130.763 24.4688 130.826 24.3737C130.877 24.2963 130.826 24.2052 130.853 24.1223C130.878 24.0485 130.944 23.9516 130.998 23.8945" stroke="#5100C1" stroke-linecap="round"/>
<path d="M122.77 28.2076C122.694 28.2076 122.924 28.2076 123 28.2076C123.118 28.2076 123.198 28.2576 123.307 28.2874C123.378 28.3066 123.392 28.3407 123.48 28.3407C123.574 28.3407 123.668 28.3407 123.762 28.3407C124.05 28.3407 124.337 28.3407 124.626 28.3407C125.253 28.3407 125.879 28.3407 126.506 28.3407C126.666 28.3407 126.827 28.3407 126.987 28.3407C127.177 28.3407 127.352 28.2874 127.54 28.2874C127.701 28.2874 127.865 28.2608 128.029 28.2608C128.113 28.2608 128.196 28.2608 128.279 28.2608C128.416 28.2608 128.196 28.2608 128.157 28.2608C128.047 28.2608 127.264 28.214 127.253 28.2889C127.233 28.4166 127.582 28.3673 127.657 28.3673C127.787 28.3673 127.918 28.3673 128.048 28.3673C128.29 28.3673 128.54 28.3407 128.769 28.3407C128.885 28.3407 129.006 28.3141 129.127 28.3141C129.274 28.3141 129.431 28.3303 129.577 28.3126C129.906 28.2728 130.227 28.2608 130.562 28.2608C130.658 28.2608 130.754 28.2608 130.851 28.2608C130.94 28.2608 131.099 28.2957 131.183 28.2549C131.32 28.1878 131.528 28.2114 131.654 28.1277C131.774 28.0471 131.93 28.0465 132.061 27.9946C132.207 27.937 132.345 27.8869 132.48 27.8067C132.538 27.7724 132.594 27.7476 132.653 27.7136C132.691 27.6912 132.84 27.6424 132.858 27.6071C132.916 27.4974 133.095 27.4805 133.153 27.3704C133.209 27.2631 133.379 27.1817 133.397 27.0627C133.408 26.9881 133.521 26.8262 133.563 26.764C133.698 26.5627 133.739 26.2738 133.739 26.0244" stroke="#5100C1" stroke-linecap="round"/>
<path d="M155.29 7.23926V22.4956" stroke="#5100C1" stroke-width="4" stroke-linecap="round"/>
<path d="M169.142 7V22" stroke="#5100C1" stroke-width="4" stroke-linecap="round"/>
</g>
<rect x="183" width="194" height="31" rx="15.5" fill="#FFCD23"/>
<path d="M209.456 24C209.296 24 209.168 23.952 209.072 23.856C208.976 23.76 208.928 23.632 208.928 23.472V8.64H204.176C204.016 8.64 203.888 8.592 203.792 8.496C203.696 8.4 203.648 8.272 203.648 8.112V7.752C203.648 7.576 203.696 7.44 203.792 7.344C203.888 7.248 204.016 7.2 204.176 7.2H215.168C215.344 7.2 215.48 7.248 215.576 7.344C215.672 7.44 215.72 7.576 215.72 7.752V8.112C215.72 8.272 215.672 8.4 215.576 8.496C215.48 8.592 215.344 8.64 215.168 8.64H210.44V23.472C210.44 23.632 210.392 23.76 210.296 23.856C210.2 23.952 210.064 24 209.888 24H209.456ZM219.143 24C218.983 24 218.855 23.952 218.759 23.856C218.663 23.76 218.615 23.632 218.615 23.472V7.752C218.615 7.576 218.663 7.44 218.759 7.344C218.855 7.248 218.983 7.2 219.143 7.2H224.975C226.095 7.2 227.063 7.392 227.879 7.776C228.711 8.144 229.351 8.696 229.799 9.432C230.263 10.168 230.495 11.08 230.495 12.168C230.495 13.256 230.263 14.168 229.799 14.904C229.351 15.64 228.711 16.2 227.879 16.584C227.063 16.952 226.095 17.136 224.975 17.136H220.127V23.472C220.127 23.632 220.079 23.76 219.983 23.856C219.887 23.952 219.751 24 219.575 24H219.143ZM220.127 15.696H224.855C226.247 15.696 227.279 15.392 227.951 14.784C228.639 14.176 228.983 13.304 228.983 12.168C228.983 11.032 228.639 10.16 227.951 9.552C227.279 8.944 226.247 8.64 224.855 8.64H220.127V15.696ZM234.214 24C234.054 24 233.926 23.952 233.83 23.856C233.734 23.76 233.686 23.632 233.686 23.472V7.752C233.686 7.576 233.734 7.44 233.83 7.344C233.926 7.248 234.054 7.2 234.214 7.2H243.574C243.75 7.2 243.886 7.248 243.982 7.344C244.078 7.44 244.126 7.576 244.126 7.752V8.112C244.126 8.272 244.078 8.4 243.982 8.496C243.886 8.592 243.75 8.64 243.574 8.64H235.198V14.76H243.046C243.222 14.76 243.358 14.808 243.454 14.904C243.55 15 243.598 15.136 243.598 15.312V15.672C243.598 15.832 243.55 15.96 243.454 16.056C243.358 16.152 243.222 16.2 243.046 16.2H235.198V22.56H243.766C243.942 22.56 244.078 22.608 244.174 22.704C244.27 22.8 244.318 22.936 244.318 23.112V23.472C244.318 23.632 244.27 23.76 244.174 23.856C244.078 23.952 243.942 24 243.766 24H234.214ZM248.417 24C248.257 24 248.129 23.952 248.033 23.856C247.937 23.76 247.889 23.632 247.889 23.472V7.752C247.889 7.576 247.937 7.44 248.033 7.344C248.129 7.248 248.257 7.2 248.417 7.2H258.401C258.577 7.2 258.713 7.248 258.809 7.344C258.905 7.44 258.953 7.576 258.953 7.752V8.112C258.953 8.272 258.905 8.4 258.809 8.496C258.713 8.592 258.577 8.64 258.401 8.64H249.401V14.328H254.753C256.369 14.328 257.609 14.768 258.473 15.648C259.353 16.512 259.793 17.664 259.793 19.104C259.793 19.632 259.689 20.184 259.481 20.76C259.289 21.336 258.985 21.872 258.569 22.368C258.169 22.848 257.649 23.24 257.009 23.544C256.385 23.848 255.633 24 254.753 24H248.417ZM249.401 22.56H254.513C255.313 22.56 255.993 22.4 256.553 22.08C257.113 21.76 257.537 21.336 257.825 20.808C258.129 20.264 258.281 19.672 258.281 19.032C258.281 18.056 257.969 17.272 257.345 16.68C256.737 16.072 255.793 15.768 254.513 15.768H249.401V22.56ZM268.741 24.24C267.413 24.24 266.285 24.008 265.357 23.544C264.429 23.064 263.717 22.336 263.221 21.36C262.725 20.368 262.453 19.12 262.405 17.616C262.389 16.896 262.381 16.224 262.381 15.6C262.381 14.976 262.389 14.304 262.405 13.584C262.453 12.096 262.741 10.864 263.269 9.888C263.797 8.896 264.525 8.16 265.453 7.68C266.397 7.2 267.493 6.96 268.741 6.96C269.989 6.96 271.077 7.2 272.005 7.68C272.949 8.16 273.685 8.896 274.213 9.888C274.757 10.864 275.045 12.096 275.077 13.584C275.109 14.304 275.125 14.976 275.125 15.6C275.125 16.224 275.109 16.896 275.077 17.616C275.045 19.12 274.773 20.368 274.261 21.36C273.765 22.336 273.053 23.064 272.125 23.544C271.197 24.008 270.069 24.24 268.741 24.24ZM268.741 22.8C270.117 22.8 271.245 22.384 272.125 21.552C273.021 20.72 273.501 19.368 273.565 17.496C273.597 16.776 273.613 16.144 273.613 15.6C273.613 15.056 273.597 14.424 273.565 13.704C273.533 12.456 273.301 11.44 272.869 10.656C272.453 9.872 271.885 9.304 271.165 8.952C270.461 8.584 269.653 8.4 268.741 8.4C267.845 8.4 267.037 8.584 266.317 8.952C265.613 9.304 265.045 9.872 264.613 10.656C264.197 11.44 263.965 12.456 263.917 13.704C263.901 14.424 263.893 15.056 263.893 15.6C263.893 16.144 263.901 16.776 263.917 17.496C263.981 19.368 264.461 20.72 265.357 21.552C266.253 22.384 267.381 22.8 268.741 22.8ZM279.472 24C279.312 24 279.184 23.952 279.088 23.856C278.992 23.76 278.944 23.632 278.944 23.472V7.752C278.944 7.576 278.992 7.44 279.088 7.344C279.184 7.248 279.312 7.2 279.472 7.2H285.736C286.856 7.2 287.768 7.4 288.472 7.8C289.192 8.2 289.72 8.728 290.056 9.384C290.392 10.024 290.56 10.728 290.56 11.496C290.56 12.184 290.448 12.776 290.224 13.272C290.016 13.752 289.744 14.144 289.408 14.448C289.088 14.752 288.768 14.984 288.448 15.144C289.088 15.464 289.656 15.976 290.152 16.68C290.648 17.384 290.896 18.24 290.896 19.248C290.896 20.048 290.704 20.816 290.32 21.552C289.952 22.272 289.392 22.864 288.64 23.328C287.904 23.776 286.992 24 285.904 24H279.472ZM280.456 22.56H285.664C286.848 22.56 287.76 22.248 288.4 21.624C289.056 21 289.384 20.208 289.384 19.248C289.384 18.272 289.056 17.48 288.4 16.872C287.76 16.248 286.848 15.936 285.664 15.936H280.456V22.56ZM280.456 14.496H285.424C286.608 14.496 287.504 14.232 288.112 13.704C288.736 13.176 289.048 12.44 289.048 11.496C289.048 10.552 288.736 9.84 288.112 9.36C287.504 8.88 286.608 8.64 285.424 8.64H280.456V14.496ZM293.423 24C293.295 24 293.183 23.952 293.087 23.856C292.991 23.76 292.943 23.648 292.943 23.52C292.943 23.44 292.959 23.352 292.991 23.256L299.063 7.68C299.127 7.52 299.207 7.4 299.303 7.32C299.415 7.24 299.567 7.2 299.759 7.2H300.575C300.767 7.2 300.911 7.24 301.007 7.32C301.119 7.4 301.207 7.52 301.271 7.68L307.343 23.256C307.375 23.352 307.391 23.44 307.391 23.52C307.391 23.648 307.343 23.76 307.247 23.856C307.151 23.952 307.039 24 306.911 24H306.431C306.271 24 306.151 23.96 306.071 23.88C305.991 23.784 305.935 23.704 305.903 23.64L304.415 19.8H295.919L294.431 23.64C294.415 23.704 294.359 23.784 294.263 23.88C294.183 23.96 294.063 24 293.903 24H293.423ZM296.495 18.36H303.839L300.167 8.904L296.495 18.36ZM310.761 24C310.601 24 310.473 23.952 310.377 23.856C310.281 23.76 310.233 23.632 310.233 23.472V7.752C310.233 7.576 310.281 7.44 310.377 7.344C310.473 7.248 310.601 7.2 310.761 7.2H311.193C311.369 7.2 311.505 7.248 311.601 7.344C311.697 7.44 311.745 7.576 311.745 7.752V14.76H321.009V7.752C321.009 7.576 321.057 7.44 321.153 7.344C321.249 7.248 321.377 7.2 321.537 7.2H321.969C322.145 7.2 322.281 7.248 322.377 7.344C322.473 7.44 322.521 7.576 322.521 7.752V23.472C322.521 23.632 322.473 23.76 322.377 23.856C322.281 23.952 322.145 24 321.969 24H321.537C321.377 24 321.249 23.952 321.153 23.856C321.057 23.76 321.009 23.632 321.009 23.472V16.2H311.745V23.472C311.745 23.632 311.697 23.76 311.601 23.856C311.505 23.952 311.369 24 311.193 24H310.761ZM327.565 24C327.405 24 327.277 23.952 327.181 23.856C327.085 23.744 327.037 23.608 327.037 23.448V7.752C327.037 7.576 327.085 7.44 327.181 7.344C327.293 7.248 327.429 7.2 327.589 7.2H328.021C328.181 7.2 328.309 7.248 328.405 7.344C328.501 7.44 328.549 7.576 328.549 7.752V21.36L338.413 7.488C338.445 7.456 338.493 7.4 338.557 7.32C338.637 7.24 338.757 7.2 338.917 7.2H339.421C339.581 7.2 339.709 7.248 339.805 7.344C339.901 7.44 339.949 7.576 339.949 7.752V23.472C339.949 23.632 339.901 23.76 339.805 23.856C339.709 23.952 339.581 24 339.421 24H338.989C338.829 24 338.693 23.952 338.581 23.856C338.485 23.76 338.437 23.632 338.437 23.472V9.888L328.597 23.712C328.581 23.744 328.533 23.8 328.453 23.88C328.373 23.96 328.253 24 328.093 24H327.565ZM354.387 24C354.227 24 354.091 23.952 353.979 23.856C353.883 23.76 353.835 23.632 353.835 23.472V17.352H349.683C348.611 17.352 347.699 17.16 346.947 16.776C346.195 16.392 345.619 15.832 345.219 15.096C344.835 14.344 344.643 13.424 344.643 12.336C344.643 11.504 344.819 10.696 345.171 9.912C345.523 9.128 346.067 8.48 346.803 7.968C347.555 7.456 348.515 7.2 349.683 7.2H354.819C354.979 7.2 355.107 7.248 355.203 7.344C355.299 7.44 355.347 7.568 355.347 7.728V23.472C355.347 23.632 355.299 23.76 355.203 23.856C355.107 23.952 354.979 24 354.819 24H354.387ZM344.835 24C344.707 24 344.595 23.952 344.499 23.856C344.403 23.76 344.355 23.648 344.355 23.52C344.355 23.44 344.379 23.352 344.427 23.256L348.963 16.344L350.523 16.56L346.035 23.352C345.923 23.512 345.811 23.664 345.699 23.808C345.587 23.936 345.395 24 345.123 24H344.835ZM349.923 15.912H353.835V8.64H349.923C348.739 8.64 347.811 8.984 347.139 9.672C346.483 10.36 346.155 11.272 346.155 12.408C346.155 13.576 346.459 14.456 347.067 15.048C347.691 15.624 348.643 15.912 349.923 15.912Z" fill="#5100C1"/>
<defs>
<clipPath id="clip0_943_170">
<rect width="170.142" height="29" fill="white" transform="translate(0.839355)"/>
</clipPath>
</defs>
</svg>
